<svg width="20" height="20" viewBox="0 0 20 20" fill="none" xmlns="http://www.w3.org/2000/svg">
<g clip-path="url(#clip0_256_897)">
<mask id="mask0_256_897" style="mask-type:luminance" maskUnits="userSpaceOnUse" x="0" y="0" width="20" height="20">
<path d="M0 0H20V20H0V0Z" fill="white"/>
</mask>
<g mask="url(#mask0_256_897)">
<path fill-rule="evenodd" clip-rule="evenodd" d="M0 0H20V20H0V0ZM15.2892 16.7667C14.3617 16.7667 13.8375 16.2833 13.435 15.625L11.9075 16.5125C12.4592 17.6025 13.5867 18.4342 15.3325 18.4342C17.1175 18.4342 18.4467 17.5075 18.4467 15.815C18.4467 14.2458 17.545 13.5483 15.9483 12.8625L15.4783 12.6617C14.6717 12.3117 14.3225 12.0842 14.3225 11.52C14.3225 11.0642 14.6725 10.715 15.2225 10.715C15.7617 10.715 16.1092 10.9425 16.4317 11.52L17.895 10.5808C17.2758 9.49167 16.4175 9.07583 15.2225 9.07583C13.5442 9.07583 12.47 10.1492 12.47 11.5592C12.47 13.0883 13.37 13.8125 14.7267 14.39L15.1967 14.5917C16.0542 14.9667 16.565 15.195 16.565 15.8392C16.565 16.3775 16.0675 16.7667 15.2892 16.7667ZM8.00583 16.7542C7.36 16.7542 7.09083 16.3125 6.79583 15.7875L5.26583 16.7142C5.70917 17.6525 6.58083 18.4308 8.085 18.4308C9.75083 18.4308 10.8917 17.545 10.8917 15.5992V9.1825H9.0125V15.5742C9.0125 16.5133 8.6225 16.7542 8.005 16.7542" fill="white"/>
</g>
</g>
<defs>
<clipPath id="clip0_256_897">
<rect width="20" height="20" fill="white"/>
</clipPath>
</defs>
</svg>
