<svg width="20" height="20" viewBox="0 0 20 20" fill="none" xmlns="http://www.w3.org/2000/svg">
<g clip-path="url(#clip0_256_906)">
<mask id="mask0_256_906" style="mask-type:luminance" maskUnits="userSpaceOnUse" x="0" y="0" width="20" height="20">
<path d="M0 0H20V20H0V0Z" fill="white"/>
</mask>
<g mask="url(#mask0_256_906)">
<path d="M19.5242 2.92424e-06H0.475001C0.412553 2.82814e-06 0.350717 0.0123166 0.293033 0.0362397C0.235349 0.0601628 0.182949 0.0952256 0.13883 0.139422C0.0947113 0.183618 0.0597404 0.23608 0.0359185 0.293806C0.0120966 0.351532 -0.000108826 0.413388 7.32347e-07 0.475836V19.525C-0.000109045 19.5875 0.0121238 19.6494 0.0359978 19.7072C0.0598718 19.765 0.0949172 19.8175 0.139124 19.8617C0.183331 19.9059 0.23583 19.941 0.293611 19.9648C0.351391 19.9887 0.413316 20.0009 0.475834 20.0008H19.525C19.5875 20.0009 19.6494 19.9887 19.7072 19.9648C19.765 19.941 19.8175 19.9059 19.8617 19.8617C19.9059 19.8175 19.941 19.765 19.9648 19.7072C19.9887 19.6494 20.0009 19.5875 20.0008 19.525V0.475003C20.0008 0.412485 19.9885 0.350581 19.9645 0.292843C19.9405 0.235104 19.9054 0.182666 19.8611 0.138537C19.8168 0.0944069 19.7643 0.0594534 19.7065 0.0356807C19.6486 0.0119079 19.5867 -0.000216438 19.5242 2.92424e-06ZM11.905 10.6883H9.52417V18.095H7.61917V10.6883H5.23833V9.0475H11.905V10.6883ZM12.4383 17.6717V15.6925C12.4383 15.6925 13.52 16.5075 14.8175 16.5075C16.115 16.5075 16.065 15.6592 16.065 15.5425C16.065 14.3117 12.3883 14.3117 12.3883 11.5833C12.3883 7.87334 17.7458 9.3375 17.7458 9.3375L17.6792 11.1008C17.6792 11.1008 16.7808 10.5017 15.7658 10.5017C14.7508 10.5017 14.385 10.985 14.385 11.5C14.385 12.8308 18.095 12.6983 18.095 15.3767C18.095 19.5017 12.4383 17.6725 12.4383 17.6725" fill="white"/>
</g>
</g>
<defs>
<clipPath id="clip0_256_906">
<rect width="20" height="20" fill="white"/>
</clipPath>
</defs>
</svg>
