<svg width="20" height="20" viewBox="0 0 20 20" fill="none" xmlns="http://www.w3.org/2000/svg">
<mask id="mask0_256_932" style="mask-type:luminance" maskUnits="userSpaceOnUse" x="0" y="0" width="20" height="20">
<path d="M0 0H20V20H0V0Z" fill="white"/>
</mask>
<g mask="url(#mask0_256_932)">
<path d="M10 0C15.5 0 20 4.5 20 10C20 15.5 15.5 20 10 20C4.5 20 0 15.5 0 10C0 4.5 4.5 0 10 0ZM8 13.3125C8.125 13.8747 8.125 14.3747 8 14.8125L7.9375 15C7.9375 15.0625 7.875 15.125 7.875 15.125C7.75 15.375 7.625 15.5625 7.4375 15.8125C6.875 16.4375 6.0625 16.6875 5.6875 16.5C5.3125 16.3125 5.5 15.375 6.1875 14.6875C6.9375 13.9375 7.9375 13.4375 7.9375 13.4375L8 13.3125ZM16.25 4.25C15.8125 2.5 12.875 1.875 10.0625 2.875C8.4375 3.5 6.625 4.4375 5.3125 5.625C3.75 7.0625 3.5625 8.3125 3.625 8.8125C4 10.625 6.5 11.875 7.5625 12.75C7.25 12.875 5 14 4.5 15.1875C3.9375 16.4375 4.5625 17.3125 5 17.375C6.3125 17.75 7.6875 17.0625 8.375 16C9.0625 14.9375 9 13.625 8.6875 12.9375C9.17368 12.7873 9.69051 12.7657 10.1875 12.875C11.9375 13.0625 12.3125 14.1875 12.1875 14.625C12.0625 15.0625 11.75 15.3125 11.625 15.4375C11.5 15.5 11.4375 15.5625 11.5 15.5625C11.5 15.625 11.5625 15.625 11.6875 15.625C11.8125 15.625 12.625 15.25 12.625 14.375C12.6875 13.3125 11.625 12.125 9.8125 12.125C9.0625 12.125 8.5625 12.1875 8.25 12.3125C8.25 12.25 8.1875 12.25 8.1875 12.25C7.0625 11.0625 5 10.1875 5.0625 8.5625C5.0625 8 5.3125 6.4375 9.0625 4.5625C12.125 3 14.625 3.4375 15.0625 4.375C15.6875 5.6875 13.75 8.1875 10.5625 8.5625C9.3125 8.6875 8.6875 8.25 8.5625 8.0625C8.375 7.875 8.375 7.875 8.3125 7.875C8.1875 7.9375 8.25 8.0625 8.3125 8.1875C8.4375 8.4375 8.8125 8.875 9.5 9.125C10.0625 9.3125 11.5 9.4375 13.25 8.75C15.1875 8 16.6875 5.9375 16.25 4.1875V4.25Z" fill="white"/>
</g>
</svg>
