<svg width="1600" height="246" viewBox="0 0 1600 246" fill="none" xmlns="http://www.w3.org/2000/svg">
<path d="M1548.43 71.9146C1547.5 62.5125 1543.5 55.2083 1536.44 50.0022C1529.38 44.7961 1519.8 42.193 1507.69 42.193C1499.46 42.193 1492.52 43.3586 1486.85 45.6897C1481.19 47.9431 1476.84 51.0901 1473.82 55.1306C1470.87 59.1712 1469.39 63.7557 1469.39 68.8841C1469.24 73.1578 1470.13 76.8876 1472.07 80.0735C1474.09 83.2593 1476.84 86.0178 1480.33 88.3489C1483.83 90.6023 1487.86 92.5837 1492.44 94.2932C1497.02 95.925 1501.91 97.3236 1507.11 98.4892L1528.53 103.618C1538.93 105.949 1548.47 109.057 1557.16 112.942C1565.85 116.827 1573.38 121.606 1579.74 127.278C1586.11 132.951 1591.04 139.633 1594.53 147.326C1598.1 155.018 1599.92 163.838 1600 173.784C1599.92 188.392 1596.2 201.058 1588.82 211.781C1581.53 222.426 1570.98 230.702 1557.16 236.607C1543.43 242.435 1526.86 245.349 1507.46 245.349C1488.21 245.349 1471.45 242.396 1457.17 236.491C1442.97 230.585 1431.87 221.843 1423.88 210.266C1415.96 198.61 1411.81 184.196 1411.42 167.024H1460.2C1460.74 175.027 1463.03 181.71 1467.06 187.071C1471.18 192.355 1476.65 196.357 1483.48 199.076C1490.38 201.718 1498.18 203.039 1506.87 203.039C1515.41 203.039 1522.82 201.796 1529.11 199.309C1535.47 196.823 1540.4 193.365 1543.89 188.936C1547.38 184.507 1549.13 179.417 1549.13 173.667C1549.13 168.306 1547.54 163.799 1544.36 160.147C1541.25 156.495 1536.67 153.387 1530.62 150.822C1524.65 148.258 1517.31 145.927 1508.62 143.829L1482.66 137.302C1462.56 132.407 1446.69 124.753 1435.05 114.341C1423.41 103.928 1417.63 89.9029 1417.71 72.2642C1417.63 57.8114 1421.47 45.1846 1429.23 34.3838C1437.07 23.583 1447.82 15.1522 1461.48 9.09131C1475.13 3.03044 1490.66 0 1508.04 0C1525.73 0 1541.18 3.03044 1554.37 9.09131C1567.64 15.1522 1577.96 23.583 1585.33 34.3838C1592.7 45.1846 1596.51 57.6948 1596.74 71.9146H1548.43Z" fill="white"/>
<path d="M1377.9 0V245.349H1326.74V0L1377.9 0Z" fill="white"/>
<path d="M1241.76 71.9146C1240.83 62.5125 1236.83 55.2083 1229.77 50.0022C1222.71 44.7961 1213.12 42.193 1201.02 42.193C1192.79 42.193 1185.85 43.3585 1180.18 45.6897C1174.52 47.9431 1170.17 51.0901 1167.14 55.1306C1164.19 59.1712 1162.72 63.7557 1162.72 68.8841C1162.56 73.1578 1163.46 76.8876 1165.4 80.0735C1167.42 83.2593 1170.17 86.0178 1173.66 88.3489C1177.15 90.6023 1181.19 92.5837 1185.77 94.2932C1190.35 95.925 1195.24 97.3236 1200.44 98.4892L1221.85 103.618C1232.25 105.949 1241.8 109.057 1250.49 112.942C1259.18 116.827 1266.71 121.606 1273.07 127.278C1279.44 132.951 1284.36 139.633 1287.86 147.326C1291.43 155.018 1293.25 163.838 1293.33 173.784C1293.25 188.392 1289.53 201.058 1282.15 211.781C1274.86 222.426 1264.3 230.702 1250.49 236.607C1236.75 242.435 1220.19 245.349 1200.78 245.349C1181.54 245.349 1164.78 242.396 1150.5 236.491C1136.3 230.585 1125.2 221.843 1117.21 210.266C1109.29 198.61 1105.14 184.196 1104.75 167.024H1153.52C1154.07 175.027 1156.36 181.71 1160.39 187.071C1164.51 192.355 1169.98 196.357 1176.81 199.076C1183.71 201.718 1191.51 203.039 1200.2 203.039C1208.74 203.039 1216.15 201.796 1222.44 199.309C1228.8 196.823 1233.73 193.365 1237.22 188.936C1240.71 184.507 1242.46 179.417 1242.46 173.667C1242.46 168.306 1240.87 163.799 1237.69 160.147C1234.58 156.495 1230 153.387 1223.95 150.822C1217.97 148.258 1210.64 145.927 1201.95 143.829L1175.99 137.302C1155.89 132.407 1140.02 124.753 1128.38 114.341C1116.74 103.928 1110.96 89.9029 1111.04 72.2642C1110.96 57.8114 1114.8 45.1846 1122.56 34.3838C1130.4 23.583 1141.15 15.1522 1154.8 9.09131C1168.46 3.03044 1183.98 0 1201.37 0C1219.06 0 1234.5 3.03044 1247.7 9.09131C1260.97 15.1522 1271.29 23.583 1278.66 34.3838C1286.03 45.1846 1289.84 57.6948 1290.07 71.9146H1241.76Z" fill="white"/>
<path d="M894.186 245.349V0L991.339 0C1009.94 0 1025.81 3.31445 1038.95 9.94334C1052.18 16.4924 1062.24 25.7968 1069.13 37.8566C1076.11 49.8365 1079.59 63.9328 1079.59 80.1457C1079.59 96.4384 1076.07 110.455 1069.01 122.195C1061.96 133.856 1051.74 142.801 1038.35 149.03C1025.05 155.26 1008.93 158.375 990.016 158.375L924.967 158.375V116.684L981.599 116.684C991.539 116.684 999.795 115.327 1006.37 112.611C1012.94 109.896 1017.83 105.823 1021.04 100.392C1024.32 94.9608 1025.97 88.2121 1025.97 80.1457C1025.97 71.9993 1024.32 65.1308 1021.04 59.5402C1017.83 53.9496 1012.9 49.7167 1006.25 46.8415C999.675 43.8864 991.379 42.4089 981.359 42.4089L946.249 42.4089V245.349H894.186ZM1027.17 133.696L1088.37 245.349H1030.9L971.018 133.696L1027.17 133.696Z" fill="white"/>
<path d="M691.615 245.349H636.047L720.717 0L787.543 0L872.093 245.349H816.525L755.088 56.066H753.172L691.615 245.349ZM688.142 148.91L819.399 148.91V189.403L688.142 189.403V148.91Z" fill="white"/>
<path d="M450 42.7683V0L652.326 0V42.7683L576.905 42.7683V245.349L525.421 245.349V42.7683L450 42.7683Z" fill="white"/>
<path d="M285.527 245.349H230.232L314.485 0L380.982 0L465.116 245.349H409.821L348.687 56.066H346.78L285.527 245.349ZM282.071 148.91L412.681 148.91V189.403L282.071 189.403V148.91Z" fill="white"/>
<path d="M214.536 86.8337H163.55C162.619 80.2289 160.718 74.3622 157.846 69.2338C154.975 64.0277 151.289 59.5986 146.788 55.9465C142.287 52.2945 137.087 49.4971 131.19 47.5545C125.369 45.612 119.044 44.6407 112.215 44.6407C99.8763 44.6407 89.1282 47.71 79.9709 53.8485C70.8136 59.9094 63.7129 68.7676 58.6686 80.4231C53.6243 92.0009 51.1022 106.065 51.1022 122.616C51.1022 139.633 53.6243 153.931 58.6686 165.508C63.7905 177.086 70.93 185.828 80.0873 191.733C89.2446 197.639 99.8375 200.592 111.866 200.592C118.618 200.592 124.865 199.698 130.607 197.911C136.428 196.124 141.588 193.521 146.089 190.102C150.591 186.605 154.315 182.37 157.264 177.397C160.291 172.424 162.386 166.752 163.55 160.38L214.536 160.613C213.217 171.569 209.919 182.137 204.642 192.316C199.442 202.418 192.419 211.47 183.572 219.474C174.803 227.399 164.326 233.693 152.143 238.355C140.036 242.94 126.339 245.232 111.051 245.232C89.7878 245.232 70.7748 240.415 54.0124 230.779C37.3275 221.144 24.1348 207.196 14.4343 188.936C4.81145 170.676 0 148.569 0 122.616C0 96.5854 4.88905 74.44 14.6672 56.1796C24.4453 37.9193 37.7155 24.0104 54.478 14.4529C71.2404 4.81762 90.0982 0 111.051 0C124.865 0 137.669 1.94259 149.465 5.82776C161.339 9.71294 171.854 15.3853 181.011 22.8448C190.169 30.2267 197.619 39.2791 203.361 50.0022C209.182 60.7253 212.906 73.0024 214.536 86.8337Z" fill="white"/>
</svg>
