<svg width="24" height="24" viewBox="0 0 24 24" fill="none" xmlns="http://www.w3.org/2000/svg">
<g clip-path="url(#clip0_308_222)">
<path d="M20.1276 0.377304L18.8313 0.458116L18.9323 3.1538C18.9376 3.30287 18.7656 3.38987 18.6485 3.29743L17.7803 2.61305L16.7519 3.39343C16.7254 3.41354 16.6938 3.42569 16.6606 3.42847C16.6275 3.43125 16.5942 3.42454 16.5648 3.40912C16.5353 3.3937 16.5109 3.37021 16.4943 3.3414C16.4777 3.31259 16.4696 3.27965 16.471 3.24643L16.5867 0.598366L3.72646 1.40255C3.42054 1.42162 3.1342 1.55951 2.92856 1.7868C2.72292 2.01409 2.61428 2.31276 2.62584 2.61905L3.34959 21.9012C3.36063 22.1958 3.48208 22.4755 3.68979 22.6847C3.89751 22.8939 4.17631 23.0173 4.47084 23.0305L20.1481 23.7344C20.3066 23.7414 20.4648 23.7163 20.6133 23.6605C20.7619 23.6048 20.8976 23.5196 21.0123 23.41C21.127 23.3004 21.2183 23.1687 21.2807 23.0229C21.3431 22.877 21.3753 22.72 21.3753 22.5614V1.54955C21.3753 1.38912 21.3425 1.23038 21.2788 1.08313C21.2151 0.935876 21.1219 0.803247 21.005 0.693429C20.8881 0.583591 20.7499 0.498872 20.599 0.444501C20.4482 0.39013 20.2877 0.36726 20.1276 0.377304ZM12.3539 4.34987C15.4116 4.34987 17.0815 5.98543 17.0815 9.09718C16.6683 9.41837 13.5903 9.63718 13.5903 9.18024C13.6551 7.43649 12.8746 7.36018 12.4409 7.36018C12.0288 7.36018 11.3348 7.4843 11.3348 8.41843C11.3348 10.7224 17.2767 10.5981 17.2767 15.2479C17.2767 17.8636 15.1514 19.3082 12.4409 19.3082C9.6434 19.3082 7.19896 18.1765 7.47496 14.2527C7.58334 13.792 11.1396 13.9015 11.1396 14.2527C11.0965 15.8717 11.465 16.348 12.3972 16.348C13.1129 16.348 13.4384 15.9537 13.4384 15.2894C13.4384 12.9229 7.58334 12.8401 7.58334 8.50168C7.58334 6.01074 9.29652 4.34987 12.3539 4.34987Z" fill="#F8F8F8"/>
</g>
<defs>
<clipPath id="clip0_308_222">
<rect width="24" height="24" fill="white"/>
</clipPath>
</defs>
</svg>
