<svg width="20" height="20" viewBox="0 0 20 20" fill="none" xmlns="http://www.w3.org/2000/svg">
<g clip-path="url(#clip0_256_1011)">
<path d="M15.1954 0.417601C15.0913 0.421694 14.9899 0.451613 14.9002 0.504664C14.8106 0.557716 14.7355 0.632233 14.6818 0.721507C14.4879 1.06839 14.2865 1.41107 14.0779 1.74932C12.4462 4.43901 10.7856 4.13698 7.82572 2.71619L3.71713 0.782601C3.38525 0.631038 3.02338 0.782601 2.87182 1.08463L0.908848 5.52698C0.757598 5.82963 0.908848 6.22291 1.21104 6.37354C2.08666 6.76666 3.80854 7.58291 5.31807 8.33791C10.9067 10.9984 15.6485 10.8468 19.2723 4.95323H19.2726C19.4881 4.6132 19.6997 4.27068 19.9073 3.92573C20.0885 3.62369 19.9974 3.23073 19.6956 3.04916L15.5573 0.509788C15.4483 0.444152 15.3225 0.412087 15.1954 0.417601ZM8.30854 9.99651C5.42525 10.0628 2.87916 11.5484 0.727598 15.0478C0.511951 15.3878 0.30027 15.7303 0.0925984 16.0753C-0.0880266 16.3773 0.00244217 16.7703 0.304317 16.9518L4.4426 19.491C4.74463 19.6723 5.13666 19.5812 5.31807 19.2793C5.51232 18.9326 5.71367 18.5899 5.92197 18.2515C7.55369 15.5618 9.21463 15.8639 12.1745 17.2846L16.2828 19.2182C16.6146 19.3698 16.9774 19.2182 17.1281 18.9162L19.092 14.474C19.2423 14.1713 19.0918 13.7788 18.7888 13.6274C17.9132 13.2343 16.1923 12.4181 14.6818 11.6631C12.4118 10.5701 10.2813 9.95104 8.30854 9.99651Z" fill="white"/>
</g>
<defs>
<clipPath id="clip0_256_1011">
<rect width="20" height="20" fill="white"/>
</clipPath>
</defs>
</svg>
