<svg width="20" height="20" viewBox="0 0 20 20" fill="none" xmlns="http://www.w3.org/2000/svg">
<g clip-path="url(#clip0_256_923)">
<path d="M19.4531 3.32812L18.7656 14.0469L12.2344 0L19.4531 3.32812ZM14.9219 17.1875L10 20L5.07812 17.1875L6.07812 14.7656H13.9375L14.9219 17.1875ZM10 5.32812L12.5781 11.6094H7.42188L10 5.32812ZM1.23438 14.0469L0.546875 3.32812L7.76562 0L1.23438 14.0469Z" fill="white"/>
<path d="M19.4531 3.32812L18.7656 14.0469L12.2344 0L19.4531 3.32812ZM14.9219 17.1875L10 20L5.07812 17.1875L6.07812 14.7656H13.9375L14.9219 17.1875ZM10 5.32812L12.5781 11.6094H7.42188L10 5.32812ZM1.23438 14.0469L0.546875 3.32812L7.76562 0L1.23438 14.0469Z" fill="white"/>
</g>
<defs>
<clipPath id="clip0_256_923">
<rect width="20" height="20" fill="white"/>
</clipPath>
</defs>
</svg>
