<svg width="20" height="20" viewBox="0 0 20 20" fill="none" xmlns="http://www.w3.org/2000/svg">
<g clip-path="url(#clip0_256_1113)">
<path d="M19.4909 9.12219L10.879 0.510625C10.3834 0.0146875 9.57902 0.0146875 9.08261 0.510625L7.29449 2.29906L9.56292 4.5675C10.0903 4.38953 10.6946 4.50891 11.1148 4.92906C11.5371 5.35188 11.6556 5.96141 11.4732 6.49047L13.6595 8.67688C14.1884 8.49453 14.7989 8.61234 15.221 9.03547C15.8117 9.62563 15.8117 10.5823 15.221 11.1728C15.0807 11.3132 14.914 11.4246 14.7306 11.5006C14.5472 11.5766 14.3506 11.6158 14.1521 11.6158C13.9535 11.6158 13.7569 11.5766 13.5735 11.5006C13.3901 11.4246 13.2234 11.3132 13.0831 11.1728C12.8723 10.9618 12.7285 10.6931 12.67 10.4006C12.6115 10.1081 12.6408 9.80482 12.7542 9.52891L10.7154 7.49016L10.7151 12.8559C10.863 12.9288 10.9981 13.0252 11.115 13.1416C11.7053 13.7317 11.7053 14.6881 11.115 15.2795C10.5245 15.8697 9.56745 15.8697 8.97761 15.2795C8.3873 14.6883 8.3873 13.7319 8.97761 13.1416C9.11917 13.0001 9.28735 12.888 9.47245 12.8119V7.39641C9.28714 7.32059 9.11889 7.20844 8.97761 7.06656C8.53042 6.61969 8.42277 5.96344 8.65214 5.41406L6.41573 3.17766L0.510735 9.08235C0.272503 9.32065 0.138672 9.64382 0.138672 9.98078C0.138672 10.3177 0.272503 10.6409 0.510735 10.8792L9.12277 19.4908C9.6187 19.9867 10.4228 19.9867 10.9195 19.4908L19.491 10.9192C19.7292 10.6808 19.863 10.3576 19.863 10.0207C19.863 9.6837 19.7291 9.36052 19.4909 9.12219Z" fill="white"/>
</g>
<defs>
<clipPath id="clip0_256_1113">
<rect width="20" height="20" fill="white"/>
</clipPath>
</defs>
</svg>
