<svg width="20" height="20" viewBox="0 0 20 20" fill="none" xmlns="http://www.w3.org/2000/svg">
<path d="M2.2863 6.85516L1.66797 7.68849H4.70547L4.92047 3.30682L2.2863 6.85516ZM14.7055 2.90349L10.378 2.47349L14.948 7.44682L14.7055 2.90349ZM5.16297 8.71016L4.7863 7.98432H1.69464L9.27547 16.801L5.16297 8.71016ZM5.2163 7.68849H14.7863L12.0446 4.70516L10.0013 2.47266L5.2163 7.68849ZM15.2163 7.98432L10.7271 16.8285L18.308 8.01099H15.2163V7.98432ZM15.378 3.70932L15.0821 3.28016L15.1088 3.87182L15.2971 7.68849H18.3346L15.378 3.70932ZM5.18964 4.54266L5.02797 7.41932L9.62464 2.47349L5.29714 2.90349L5.18964 4.54266ZM14.8938 7.98432H5.1088L6.56047 10.8068L10.0013 17.5268L14.8938 7.98432Z" fill="white"/>
</svg>
