<svg width="20" height="20" viewBox="0 0 20 20" fill="none" xmlns="http://www.w3.org/2000/svg">
<g clip-path="url(#clip0_256_941)">
<path d="M12.9375 12.4062C12.9375 14.25 11.2188 14.2188 11.0625 14.2188H7.53125V10.6875H11.0312C12.9062 10.625 12.9375 12.0312 12.9375 12.4062ZM10.7812 9.21875C10.8125 9.21875 12.4375 9.25 12.4375 7.625C12.4375 6.96875 12.3125 6.09375 10.7812 6.09375H7.53125V9.21875H10.7812ZM19.6562 3.5625V16.4688C19.6562 18.2188 18.2187 19.6875 16.4062 19.6875H3.59375C1.78125 19.6875 0.34375 18.25 0.34375 16.4375V3.5625C0.34375 1.75 1.78125 0.3125 3.59375 0.3125H16.5C18.2187 0.3125 19.6562 1.75 19.6562 3.5625ZM14.9062 12.625C14.9062 11.6875 14.6562 10.125 12.8125 9.71875V9.6875C13.8125 9.25 14.4062 8.46875 14.4062 7.3125C14.4062 7 14.5 4.5 11.0625 4.5H5.59375V15.75C11.125 15.75 11.6562 15.7812 12.6562 15.5312C13.25 15.3438 14.9062 14.7813 14.9062 12.625Z" fill="white"/>
</g>
<defs>
<clipPath id="clip0_256_941">
<rect width="20" height="20" fill="white"/>
</clipPath>
</defs>
</svg>
