<svg width="20" height="20" viewBox="0 0 20 20" fill="none" xmlns="http://www.w3.org/2000/svg">
<g clip-path="url(#clip0_256_1019)">
<path d="M15 0C17.7614 0 20 2.23859 20 5V15C20 17.7614 17.7614 20 15 20H5C2.23859 20 0 17.7614 0 15V5C0 2.23859 2.23859 0 5 0H15ZM6.03418 7.94824L4.21875 16.2188H6.03418L9.51367 7.35742L7.84961 16.2188H9.66504L12.9941 6.7666L11.4805 16.2188H13.2969L16.625 5.87988L13.2969 3.8125H11.4805L12.9941 6.4707L9.66504 3.8125H7.84961L9.51367 7.06152L6.03418 3.8125H4.21875L6.03418 7.94824Z" fill="white"/>
</g>
<defs>
<clipPath id="clip0_256_1019">
<rect width="20" height="20" fill="white"/>
</clipPath>
</defs>
</svg>
