<svg width="20" height="20" viewBox="0 0 20 20" fill="none" xmlns="http://www.w3.org/2000/svg">
<g clip-path="url(#clip0_256_1007)">
<path d="M15.6504 10.5713C13.2481 10.5713 11.3008 12.6749 11.3008 15.2698C11.3008 17.8647 13.2481 19.9683 15.6504 19.9683C18.0527 19.9683 20 17.8646 20 15.2698C20 12.6749 18.0527 10.5713 15.6504 10.5713ZM4.34961 10.5717C1.94742 10.5717 0 12.6749 0 15.2698C0 17.8647 1.94742 19.9683 4.34961 19.9683C6.75195 19.9683 8.69945 17.8646 8.69945 15.2698C8.69945 12.6749 6.75195 10.5717 4.34961 10.5717ZM14.3496 4.69831C14.3496 7.29325 12.4022 9.39705 10.0001 9.39705C7.59773 9.39705 5.65039 7.29325 5.65039 4.69831C5.65039 2.10363 7.59766 0 10 0C12.4021 0 14.3495 2.1038 14.3495 4.69823" fill="white"/>
</g>
<defs>
<clipPath id="clip0_256_1007">
<rect width="20" height="20" fill="white"/>
</clipPath>
</defs>
</svg>
