<svg width="20" height="20" viewBox="0 0 20 20" fill="none" xmlns="http://www.w3.org/2000/svg">
<g clip-path="url(#clip0_256_803)">
<path d="M3.08297 13.7646L2.03672 14.2419L1.98047 18.1288L5.60234 16.4766C4.36016 15.9556 3.45297 15.0387 3.08297 13.7646Z" fill="white"/>
<path d="M3.63023 9.65332L0 11.3094L2.03641 14.2417L3.08266 13.7644C2.71375 12.4941 2.94125 11.0581 3.63023 9.65332Z" fill="white"/>
<path d="M9.73811 4.04511C5.11538 6.15399 2.13515 10.5056 3.08155 13.7648L19.8219 6.12784C18.8755 2.86862 14.3608 1.93614 9.73811 4.04492" fill="white"/>
<path d="M13.1659 15.8476C17.7886 13.7388 20.7745 9.40637 19.8224 6.12793L3.08203 13.7648C4.03406 17.0432 8.5432 17.9564 13.1659 15.8476Z" fill="white"/>
<path d="M19.8224 6.12793L3.08203 13.765C3.40984 14.8938 4.65984 15.4499 6.41383 15.4499C8.12375 15.4499 10.3127 14.9218 12.5947 13.8807C17.2174 11.7718 20.4698 8.35739 19.8224 6.12812" fill="white"/>
<path d="M16.4908 4.44287C14.7808 4.44287 12.5919 4.97107 10.3098 6.01204C5.68718 8.12092 2.43476 11.5354 3.0821 13.7647L19.8225 6.12775C19.4948 4.99897 18.2447 4.44287 16.4908 4.44287Z" fill="white"/>
<path d="M15.5674 18.3346H15.5672C15.0747 18.3346 14.3481 17.779 13.4075 16.6833C12.2947 15.387 11.02 13.4883 9.81831 11.337C8.61652 9.18581 7.62902 7.03517 7.03769 5.28122C6.39339 3.36971 6.30152 2.19439 6.76464 1.78795C6.8662 1.69888 6.98863 1.65381 7.12839 1.65381C7.50511 1.65381 8.23909 2.00405 9.59636 3.67264L9.62605 3.70913L9.62198 3.76093C9.61271 3.88068 9.60422 4.00052 9.59652 4.12044L9.58144 4.35615L9.44824 4.18864C7.98589 2.34883 7.34214 2.1502 7.13323 2.1502C7.07363 2.1502 7.0262 2.16532 6.99222 2.19517C6.79128 2.37147 6.77839 3.23469 7.403 5.08766C7.98378 6.81039 8.95691 8.92864 10.1432 11.0519C11.3295 13.1754 12.5846 15.046 13.6775 16.3192C14.856 17.692 15.3871 17.8401 15.5607 17.8401C15.6206 17.8401 15.6693 17.8242 15.7054 17.7923C15.9174 17.6065 15.9176 16.6817 15.221 14.6873L15.189 14.5958L15.2591 14.548C15.3291 14.5001 15.3968 14.4529 15.4603 14.4079L15.5442 14.3483L15.5828 14.4589C16.0767 15.8721 16.5384 17.6681 15.933 18.1997C15.831 18.2891 15.708 18.3346 15.5674 18.3346ZM15.5672 18.1165H15.5674L15.5673 18.2255L15.5672 18.1165Z" fill="white"/>
<path d="M13.2784 15.788L13.2714 15.8966C13.1545 17.7024 12.8468 19.8736 12.0444 19.9614C12.0283 19.9632 12.0117 19.9641 11.9948 19.9641C11.4498 19.9641 10.9341 18.9889 10.4622 17.0656C10.0157 15.246 9.66926 12.8028 9.4866 10.1862C9.30394 7.57015 9.30668 5.08868 9.49426 3.19912C9.69887 1.14 10.0881 0.0645854 10.6513 0.00292683C10.668 0.00097561 10.6853 0 10.7023 0C11.0977 0 11.6936 0.559024 12.3036 3.16332L11.9053 3.25932C11.7017 2.38907 11.4796 1.68127 11.2593 1.19493C11.0554 0.745073 10.8572 0.497366 10.7012 0.497366C10.696 0.497366 10.6909 0.497594 10.6858 0.498049C10.4417 0.524878 10.0861 1.26439 9.88785 3.26049C9.70363 5.11629 9.70137 7.56049 9.8816 10.1429C10.062 12.7258 10.4028 15.1324 10.8413 16.9195C11.0376 17.7198 11.253 18.3794 11.4642 18.827C11.6589 19.2397 11.8473 19.467 11.9946 19.467C11.9998 19.467 12.0048 19.4668 12.0099 19.4662C12.2435 19.4407 12.6837 18.6711 12.8689 15.9634L13.2784 15.788Z" fill="white"/>
</g>
<defs>
<clipPath id="clip0_256_803">
<rect width="20" height="20" fill="white"/>
</clipPath>
</defs>
</svg>
