<svg width="20" height="20" viewBox="0 0 20 20" fill="none" xmlns="http://www.w3.org/2000/svg">
<g clip-path="url(#clip0_256_1121)">
<path d="M0.649066 5.93689e-05C0.555538 -0.00128092 0.46288 0.0200868 0.377598 0.0626618C0.292315 0.105237 0.216478 0.167987 0.155411 0.246505C0.0943436 0.325023 0.049528 0.417405 0.0241111 0.517163C-0.00130575 0.616922 -0.00670751 0.721637 0.00828519 0.823955L2.72852 19.1246C2.7624 19.3486 2.86641 19.5522 3.02227 19.6996C3.17814 19.847 3.37589 19.9288 3.58079 19.9307H16.6308C16.7844 19.9329 16.9336 19.8739 17.0512 19.7644C17.1688 19.6549 17.247 19.5022 17.2715 19.3342L19.9918 0.827505C20.0068 0.725192 20.0013 0.620489 19.9759 0.520745C19.9505 0.421002 19.9057 0.328638 19.8446 0.250139C19.7835 0.171639 19.7077 0.108907 19.6224 0.066348C19.5371 0.0237887 19.4445 0.0024336 19.3509 0.00378231L0.649066 5.93689e-05ZM12.1034 13.2267H7.93821L6.81039 6.69686H13.1127L12.1034 13.2267Z" fill="white"/>
<path d="M19.1093 6.6875H13.1002L12.0917 13.2122H7.92984L3.01562 19.6765C3.17137 19.8258 3.36996 19.9088 3.57586 19.9106H16.6187C16.7721 19.9128 16.9212 19.8538 17.0387 19.7444C17.1563 19.635 17.2344 19.4825 17.259 19.3146L19.1093 6.6875Z" fill="white"/>
</g>
<defs>
<clipPath id="clip0_256_1121">
<rect width="20" height="20" fill="white"/>
</clipPath>
</defs>
</svg>
