<svg width="20" height="20" viewBox="0 0 20 20" fill="none" xmlns="http://www.w3.org/2000/svg">
<g clip-path="url(#clip0_256_818)">
<path fill-rule="evenodd" clip-rule="evenodd" d="M17.8781 0.715332C17.7191 0.402229 17.3804 0.215332 16.9697 0.215332H15.3848C14.9243 0.215332 14.5812 0.387746 14.4 0.698091L12.0508 3.89119L14.1073 6.50706L17.6968 1.71671C18.0912 1.2705 17.9545 0.868435 17.8781 0.715332Z" fill="white"/>
<path fill-rule="evenodd" clip-rule="evenodd" d="M5.4954 0.662515L5.49317 0.659757C5.13519 0.216309 4.65912 0.216309 4.50241 0.216309H2.95238C2.55503 0.216309 2.23047 0.385274 2.05965 0.681136C1.88511 0.983205 1.92225 1.34734 2.16363 1.68458L7.90622 9.0901L1.30357 17.6577C1.07259 17.9798 1.03991 18.3384 1.21445 18.6404C1.38527 18.9363 1.71058 19.1053 2.10718 19.1053H3.69211C4.09912 19.1053 4.4571 18.9087 4.63609 18.5984L12.0268 9.1239L5.4954 0.662515Z" fill="white"/>
<path fill-rule="evenodd" clip-rule="evenodd" d="M18.6823 17.9135L14.6821 12.8101L12.9219 15.0652L16.0858 18.9894L16.1675 19.0239C16.3042 19.0783 16.4349 19.1045 16.5671 19.1045H17.9121C18.2374 19.1045 18.5137 18.9701 18.6697 18.7363C18.8301 18.4949 18.8338 18.1963 18.6823 17.9135Z" fill="white"/>
</g>
<defs>
<clipPath id="clip0_256_818">
<rect width="20" height="20" fill="white"/>
</clipPath>
</defs>
</svg>
