<svg width="24" height="24" viewBox="0 0 24 24" fill="none" xmlns="http://www.w3.org/2000/svg">
<g clip-path="url(#clip0_443_471)">
<path d="M20 0H4C1.79086 0 0 1.79086 0 4V20C0 22.2091 1.79086 24 4 24H20C22.2091 24 24 22.2091 24 20V4C24 1.79086 22.2091 0 20 0Z" fill="#F8F8F8"/>
<path d="M14.6699 11.6377C14.8556 11.6574 15 11.8142 15 12.001C15 14.3821 14.7164 16.5567 14.2471 18.1523C14.0134 18.9466 13.7258 19.6261 13.3838 20.1182C13.0519 20.5954 12.592 21.0009 12 21.001C11.408 21.0009 10.9481 20.5954 10.6162 20.1182C10.2742 19.6261 9.98655 18.9466 9.75293 18.1523C9.64937 17.8002 9.55614 17.4193 9.47266 17.0146C9.40742 16.6972 9.66681 16.412 9.99023 16.4336C10.2176 16.4488 10.4104 16.6149 10.457 16.8379C10.5339 17.2068 10.6185 17.5525 10.7119 17.8701C10.9306 18.6137 11.1815 19.1797 11.4375 19.5478C11.7034 19.9302 11.9018 20.0009 12 20.001C12.0982 20.0009 12.2966 19.9302 12.5625 19.5478C12.8185 19.1797 13.0694 18.6137 13.2881 17.8701C13.7236 16.3894 14 14.3141 14 12.001C14 11.7729 14.1899 11.5908 14.417 11.6123C14.5021 11.6204 14.5864 11.6288 14.6699 11.6377ZM6.98438 9.47364C7.30159 9.40809 7.5871 9.66703 7.56641 9.99024C7.55176 10.2175 7.38601 10.4104 7.16309 10.457C6.79398 10.5342 6.44864 10.6194 6.13086 10.7129C5.38721 10.9316 4.82131 11.1824 4.45312 11.4385C4.07048 11.7046 4 11.9028 4 12.001C4.00004 12.0992 4.07055 12.2974 4.45312 12.5635C4.82131 12.8195 5.38722 13.0703 6.13086 13.2891C7.61162 13.7245 9.68681 14.001 12 14.001C12.2275 14.001 12.4086 14.1896 12.3867 14.416C12.3782 14.503 12.3696 14.5895 12.3604 14.6748C12.3403 14.8588 12.185 15.001 12 15.001C9.61889 15.001 7.44426 14.7173 5.84863 14.248C5.05427 14.0144 4.37485 13.7268 3.88281 13.3848C3.40549 13.0528 3.00004 12.5931 3 12.001C3 11.4088 3.40548 10.9491 3.88281 10.6172C4.37485 10.2751 5.05425 9.98755 5.84863 9.75391C6.2003 9.65048 6.5803 9.55713 6.98438 9.47364ZM12 9.00098C14.3811 9.00098 16.5557 9.28461 18.1514 9.75391C18.9457 9.98755 19.6252 10.2751 20.1172 10.6172C20.5945 10.9491 21 11.4088 21 12.001C21 12.5931 20.5945 13.0528 20.1172 13.3848C19.6252 13.7268 18.9457 14.0144 18.1514 14.248C17.7995 14.3515 17.4191 14.4441 17.0146 14.5273C16.6974 14.5926 16.412 14.3339 16.4326 14.0107C16.4473 13.7834 16.613 13.5904 16.8359 13.5439C17.2054 13.467 17.5511 13.3826 17.8691 13.2891C18.6128 13.0703 19.1787 12.8195 19.5469 12.5635C19.9295 12.2974 20 12.0992 20 12.001C20 11.9028 19.9295 11.7046 19.5469 11.4385C19.1787 11.1824 18.6128 10.9316 17.8691 10.7129C16.3884 10.2774 14.3132 10.001 12 10.001C11.7721 10.001 11.5905 9.8108 11.6123 9.58399C11.6207 9.4977 11.6295 9.41178 11.6387 9.32715C11.6587 9.14265 11.8144 9.00098 12 9.00098ZM12 3.00098C12.592 3.00108 13.0519 3.40655 13.3838 3.88379C13.7258 4.37581 14.0134 5.0553 14.2471 5.84961C14.3505 6.20115 14.4432 6.58139 14.5264 6.98535C14.5916 7.30288 14.3323 7.58821 14.0088 7.56739C13.7815 7.55262 13.5884 7.38703 13.542 7.16407C13.4654 6.79512 13.3815 6.44942 13.2881 6.13184C13.0694 5.38827 12.8185 4.82229 12.5625 4.4541C12.2966 4.07179 12.0982 4.00108 12 4.00098C11.9018 4.00108 11.7034 4.07179 11.4375 4.4541C11.1815 4.82229 10.9306 5.38827 10.7119 6.13184C10.2764 7.61259 10 9.68781 10 12.001C10 12.2284 9.81042 12.4099 9.58398 12.3887C9.49766 12.3805 9.41181 12.3723 9.32715 12.3633C9.14206 12.3436 9 12.1871 9 12.001C9 9.61989 9.28364 7.44523 9.75293 5.84961C9.98655 5.0553 10.2742 4.37581 10.6162 3.88379C10.9481 3.40655 11.408 3.00108 12 3.00098Z" fill="#0F1215"/>
</g>
<defs>
<clipPath id="clip0_443_471">
<rect width="24" height="24" fill="white"/>
</clipPath>
</defs>
</svg>
