<svg width="20" height="20" viewBox="0 0 20 20" fill="none" xmlns="http://www.w3.org/2000/svg">
<path d="M10.0013 8.42503C10.8596 8.42503 11.5596 9.12503 11.5596 10C11.5596 10.8334 10.8596 11.5417 10.0013 11.5417C9.14297 11.5417 8.44297 10.8334 8.44297 10C8.44297 9.12503 9.14297 8.42503 10.0013 8.42503ZM6.14297 16.6667C6.66797 16.9834 7.81797 16.5 9.14297 15.25C8.70964 14.7584 8.28464 14.225 7.88464 13.6667C7.21315 13.602 6.54556 13.5018 5.88464 13.3667C5.45964 15.15 5.61797 16.375 6.14297 16.6667ZM6.73464 11.8834L6.49297 11.4584C6.4013 11.7 6.30964 11.9417 6.2513 12.175C6.4763 12.225 6.7263 12.2667 6.98464 12.3084L6.73464 11.8834ZM12.1846 11.25L12.8596 10L12.1846 8.75003C11.9346 8.30837 11.668 7.9167 11.4263 7.52503C10.9763 7.50003 10.5013 7.50003 10.0013 7.50003C9.5013 7.50003 9.0263 7.50003 8.5763 7.52503C8.33464 7.9167 8.06797 8.30837 7.81797 8.75003L7.14297 10L7.81797 11.25C8.06797 11.6917 8.33464 12.0834 8.5763 12.475C9.0263 12.5 9.5013 12.5 10.0013 12.5C10.5013 12.5 10.9763 12.5 11.4263 12.475C11.668 12.0834 11.9346 11.6917 12.1846 11.25ZM10.0013 5.65003C9.84297 5.83337 9.6763 6.02503 9.50963 6.25003H10.493C10.3263 6.02503 10.1596 5.83337 10.0013 5.65003ZM10.0013 14.35C10.1596 14.1667 10.3263 13.975 10.493 13.75H9.50963C9.6763 13.975 9.84297 14.1667 10.0013 14.35ZM13.8513 3.33337C13.3346 3.0167 12.1846 3.50003 10.8596 4.75003C11.293 5.2417 11.718 5.77503 12.118 6.33337C12.8013 6.40003 13.4763 6.50003 14.118 6.63337C14.543 4.85003 14.3846 3.62503 13.8513 3.33337ZM13.268 8.1167L13.5096 8.5417C13.6013 8.30003 13.693 8.05837 13.7513 7.82503C13.5263 7.77503 13.2763 7.73337 13.018 7.6917L13.268 8.1167ZM14.4763 2.2417C15.7013 2.9417 15.8346 4.78337 15.318 6.93337C17.4346 7.55837 18.9596 8.5917 18.9596 10C18.9596 11.4084 17.4346 12.4417 15.318 13.0667C15.8346 15.2167 15.7013 17.0584 14.4763 17.7584C13.2596 18.4584 11.6013 17.6584 10.0013 16.1334C8.4013 17.6584 6.74297 18.4584 5.51797 17.7584C4.3013 17.0584 4.16797 15.2167 4.68464 13.0667C2.56797 12.4417 1.04297 11.4084 1.04297 10C1.04297 8.5917 2.56797 7.55837 4.68464 6.93337C4.16797 4.78337 4.3013 2.9417 5.51797 2.2417C6.74297 1.5417 8.4013 2.3417 10.0013 3.8667C11.6013 2.3417 13.2596 1.5417 14.4763 2.2417ZM14.2346 10C14.518 10.625 14.768 11.25 14.9763 11.8834C16.7263 11.3584 17.7096 10.6084 17.7096 10C17.7096 9.3917 16.7263 8.6417 14.9763 8.1167C14.768 8.75003 14.518 9.37503 14.2346 10ZM5.76797 10C5.48464 9.37503 5.23464 8.75003 5.0263 8.1167C3.2763 8.6417 2.29297 9.3917 2.29297 10C2.29297 10.6084 3.2763 11.3584 5.0263 11.8834C5.23464 11.25 5.48464 10.625 5.76797 10ZM13.268 11.8834L13.018 12.3084C13.2763 12.2667 13.5263 12.225 13.7513 12.175C13.693 11.9417 13.6013 11.7 13.5096 11.4584L13.268 11.8834ZM10.8596 15.25C12.1846 16.5 13.3346 16.9834 13.8513 16.6667C14.3846 16.375 14.543 15.15 14.118 13.3667C13.4763 13.5 12.8013 13.6 12.118 13.6667C11.718 14.225 11.293 14.7584 10.8596 15.25ZM6.73464 8.1167L6.98464 7.6917C6.7263 7.73337 6.4763 7.77503 6.2513 7.82503C6.30964 8.05837 6.4013 8.30003 6.49297 8.5417L6.73464 8.1167ZM9.14297 4.75003C7.81797 3.50003 6.66797 3.0167 6.14297 3.33337C5.61797 3.62503 5.45964 4.85003 5.88464 6.63337C6.54556 6.49824 7.21315 6.3981 7.88464 6.33337C8.28464 5.77503 8.70964 5.2417 9.14297 4.75003Z" fill="white"/>
</svg>
