<svg width="20" height="20" viewBox="0 0 20 20" fill="none" xmlns="http://www.w3.org/2000/svg">
<path d="M9.60768 1.66602C9.60768 3.66602 11.2493 5.29102 13.2327 5.29102H14.716V6.70768C14.716 8.70768 16.3327 10.3243 18.3327 10.3327V2.36602C18.3327 2.18036 18.2589 2.00232 18.1277 1.87104C17.9964 1.73977 17.8183 1.66602 17.6327 1.66602H9.60768ZM5.64102 5.66602C5.6454 6.62386 6.02785 7.54123 6.70516 8.21854C7.38246 8.89585 8.29983 9.2783 9.25768 9.28268H10.7577V10.716C10.7621 11.6739 11.1445 12.5912 11.8218 13.2685C12.4991 13.9458 13.4165 14.3283 14.3743 14.3327V6.35768C14.3722 6.17491 14.2986 6.00024 14.1694 5.87099C14.0401 5.74174 13.8655 5.66818 13.6827 5.66602H5.64102ZM1.66602 9.66602C1.66602 11.666 3.29102 13.2827 5.29102 13.2827H6.77435V14.716C6.78268 16.7077 8.39935 18.3327 10.391 18.3327V10.3577C10.391 10.172 10.3173 9.99398 10.186 9.86271C10.0547 9.73143 9.87667 9.65768 9.69102 9.65768L1.66602 9.66602Z" fill="white"/>
</svg>
