<svg width="20" height="20" viewBox="0 0 20 20" fill="none" xmlns="http://www.w3.org/2000/svg">
<path d="M9.99935 1.66602C8.905 1.66602 7.82137 1.88156 6.81032 2.30035C5.79927 2.71914 4.88061 3.33297 4.10679 4.10679C2.54399 5.6696 1.66602 7.78921 1.66602 9.99935C1.66602 13.6827 4.05768 16.8077 7.36602 17.916C7.78268 17.9827 7.91602 17.7243 7.91602 17.4993V16.091C5.60768 16.591 5.11602 14.9743 5.11602 14.9743C4.73268 14.0077 4.19102 13.7493 4.19102 13.7493C3.43268 13.2327 4.24935 13.2493 4.24935 13.2493C5.08268 13.3077 5.52435 14.1077 5.52435 14.1077C6.24935 15.3743 7.47435 14.9993 7.94935 14.7993C8.02435 14.2577 8.24102 13.891 8.47435 13.6827C6.62435 13.4743 4.68268 12.7577 4.68268 9.58268C4.68268 8.65768 4.99935 7.91602 5.54102 7.32435C5.45768 7.11602 5.16602 6.24935 5.62435 5.12435C5.62435 5.12435 6.32435 4.89935 7.91602 5.97435C8.57435 5.79102 9.29102 5.69935 9.99935 5.69935C10.7077 5.69935 11.4243 5.79102 12.0827 5.97435C13.6743 4.89935 14.3743 5.12435 14.3743 5.12435C14.8327 6.24935 14.541 7.11602 14.4577 7.32435C14.9993 7.91602 15.316 8.65768 15.316 9.58268C15.316 12.766 13.366 13.466 11.5077 13.6743C11.8077 13.9327 12.0827 14.441 12.0827 15.216V17.4993C12.0827 17.7243 12.216 17.991 12.641 17.916C15.9493 16.7993 18.3327 13.6827 18.3327 9.99935C18.3327 8.905 18.1171 7.82137 17.6983 6.81032C17.2796 5.79927 16.6657 4.88061 15.8919 4.10679C15.1181 3.33297 14.1994 2.71914 13.1884 2.30035C12.1773 1.88156 11.0937 1.66602 9.99935 1.66602Z" fill="white"/>
</svg>
