<svg width="20" height="20" viewBox="0 0 20 20" fill="none" xmlns="http://www.w3.org/2000/svg">
<g clip-path="url(#clip0_256_945)">
<path d="M10 3C6.796 3 4.804 4.55167 4 7.66667C5.2 6.115 6.604 5.53167 8.2 5.91667C9.112 6.13833 9.772 6.78 10.492 7.49167C11.668 8.65833 13 10 16 10C19.204 10 21.196 8.44833 22 5.33333C20.8 6.885 19.396 7.46833 17.8 7.08333C16.888 6.86167 16.24 6.22 15.508 5.50833C14.332 4.34167 13 3 10 3ZM4 10C0.796 10 -1.196 11.5517 -2 14.6667C-0.8 13.115 0.604 12.5317 2.2 12.9167C3.112 13.1383 3.76 13.78 4.492 14.4917C5.668 15.6583 7 17 10 17C13.204 17 15.196 15.4483 16 12.3333C14.8 13.885 13.396 14.4683 11.8 14.0833C10.888 13.8617 10.24 13.22 9.508 12.5083C8.332 11.3417 7 10 4 10Z" fill="white"/>
</g>
<defs>
<clipPath id="clip0_256_945">
<rect width="20" height="20" fill="white"/>
</clipPath>
</defs>
</svg>
