<svg width="32" height="32" viewBox="0 0 32 32" fill="none" xmlns="http://www.w3.org/2000/svg">
<path fill-rule="evenodd" clip-rule="evenodd" d="M21.3639 6.00374C23.8039 5.83574 25.6892 7.25974 26.9439 8.90241C28.2079 10.5597 29.0785 12.7237 29.5572 14.8517C30.0332 16.9797 30.1612 19.2664 29.7652 21.2157C29.3852 23.0877 28.3705 25.2291 26.0759 25.9157C23.9159 26.5611 22.0225 25.6224 20.6732 24.4864C19.3185 23.3464 18.1719 21.7491 17.2705 20.2517C16.8486 19.5484 16.4528 18.8297 16.0839 18.0971C15.7153 18.8292 15.32 19.5474 14.8985 20.2504C13.9972 21.7491 12.8505 23.3464 11.4959 24.4864C10.1452 25.6224 8.25319 26.5611 6.09319 25.9157C3.79852 25.2291 2.78385 23.0891 2.40385 21.2157C2.00919 19.2664 2.13719 16.9797 2.61319 14.8517C3.09052 12.7237 3.96119 10.5584 5.22652 8.90241C6.47985 7.25974 8.36519 5.83574 10.8052 6.00374C13.0932 6.16374 14.7559 7.71441 15.7919 9.02907L16.0852 9.41441L16.3772 9.02774C17.4132 7.71441 19.0759 6.16241 21.3639 6.00374ZM10.5279 9.99441C9.96785 9.95574 9.23452 10.2424 8.40519 11.3304C7.58652 12.4037 6.90652 13.9877 6.51585 15.7277C6.12519 17.4677 6.06919 19.1664 6.32385 20.4211C6.54385 21.5011 6.89719 21.8891 7.11319 22.0251L7.20385 22.0704L7.23985 22.0837C7.54919 22.1771 8.05852 22.1504 8.91985 21.4251C9.77985 20.7024 10.6572 19.5411 11.4719 18.1891C11.8345 17.5851 12.1719 16.9664 12.4745 16.3717L12.8212 15.6717L13.1319 15.0091L13.4065 14.3984L13.6399 13.8557L13.8305 13.3944C13.5722 12.8764 13.2768 12.3778 12.9465 11.9024C12.0879 10.6811 11.2265 10.0437 10.5279 9.99574V9.99441ZM21.6412 9.99441C20.9425 10.0437 20.0812 10.6811 19.2225 11.9024C18.8923 12.3778 18.5968 12.8764 18.3385 13.3944L18.6412 14.1184L18.8945 14.6971L19.0372 15.0091L19.3492 15.6717L19.6959 16.3717C19.9985 16.9664 20.3345 17.5851 20.6972 18.1891C21.5119 19.5411 22.3905 20.7024 23.2479 21.4251C24.0492 22.0997 24.5452 22.1691 24.8612 22.1011L24.9305 22.0837C25.1039 22.0304 25.5745 21.7517 25.8452 20.4197C26.0985 19.1664 26.0439 17.4677 25.6532 15.7264C25.2639 13.9877 24.5839 12.4037 23.7639 11.3304C22.9332 10.2424 22.2012 9.95707 21.6412 9.99441Z" fill="white"/>
</svg>
