<svg width="32" height="32" viewBox="0 0 32 32" fill="none" xmlns="http://www.w3.org/2000/svg">
<path d="M4.08468 10.0132C5.19452 7.80455 6.89645 5.94791 9.00041 4.65059C11.1044 3.35327 13.5276 2.66634 15.9993 2.6665C19.5927 2.6665 22.6113 3.98784 24.9193 6.13984L21.0967 9.96384C19.714 8.6425 17.9567 7.96917 15.9993 7.96917C12.526 7.96917 9.58602 10.3158 8.53935 13.4665C8.27268 14.2665 8.12068 15.1198 8.12068 15.9998C8.12068 16.8798 8.27268 17.7332 8.53935 18.5332C9.58735 21.6852 12.526 24.0305 15.9993 24.0305C17.7927 24.0305 19.3193 23.5572 20.514 22.7572C21.2066 22.3012 21.7995 21.7095 22.257 21.0178C22.7144 20.3262 23.0268 19.549 23.1753 18.7332H15.9993V13.5758H28.5567C28.714 14.4478 28.7993 15.3572 28.7993 16.3025C28.7993 20.3638 27.346 23.7825 24.8233 26.1025C22.618 28.1398 19.5993 29.3332 15.9993 29.3332C14.2482 29.3339 12.5141 28.9895 10.8961 28.3197C9.27808 27.6498 7.80795 26.6677 6.5697 25.4295C5.33144 24.1912 4.34934 22.7211 3.67953 21.1031C3.00971 19.4851 2.66532 17.751 2.66602 15.9998C2.66602 13.8478 3.18068 11.8132 4.08468 10.0132Z" fill="white"/>
</svg>
