<svg width="20" height="20" viewBox="0 0 20 20" fill="none" xmlns="http://www.w3.org/2000/svg">
<path d="M5.08667 4.92521C5.57333 5.32021 5.755 5.29021 6.66833 5.22937L15.2783 4.71271C15.4617 4.71271 15.3092 4.52937 15.2483 4.49937L13.8183 3.46604C13.5442 3.25354 13.1792 3.00937 12.48 3.07021L4.1425 3.67854C3.83917 3.70854 3.77833 3.86104 3.89917 3.98271L5.08667 4.92521ZM5.60333 6.93187V15.9902C5.60333 16.4777 5.84667 16.6594 6.395 16.6294L15.8567 16.0819C16.4042 16.0519 16.465 15.7169 16.465 15.321V6.32354C16.465 5.92854 16.3133 5.71521 15.9783 5.74604L6.09 6.32354C5.725 6.35354 5.60333 6.53604 5.60333 6.93187ZM14.945 7.41771C15.005 7.69104 14.945 7.96521 14.67 7.99604L14.2142 8.08687V14.7744C13.8183 14.9877 13.4533 15.1085 13.1492 15.1085C12.6625 15.1085 12.5408 14.9569 12.1758 14.501L9.19333 9.81938V14.3494L10.1375 14.5619C10.1375 14.5619 10.1375 15.1085 9.37583 15.1085L7.27667 15.2302C7.21583 15.1085 7.27667 14.8052 7.49 14.7444L8.0375 14.5927V8.60354L7.27667 8.54271C7.21583 8.26854 7.36833 7.87354 7.79417 7.84271L10.0458 7.69104L13.1492 12.4344V8.23854L12.3575 8.14771C12.2975 7.81271 12.5408 7.57021 12.845 7.53937L14.945 7.41771ZM3.4425 2.85771L12.1142 2.21937C13.1783 2.12771 13.4525 2.18937 14.1225 2.67521L16.89 4.62104C17.3467 4.95521 17.4992 5.04604 17.4992 5.41104V16.0819C17.4992 16.751 17.2558 17.146 16.4042 17.2069L6.33333 17.8152C5.69417 17.8452 5.39 17.7544 5.055 17.3285L3.01667 14.6835C2.65167 14.1969 2.5 13.8327 2.5 13.406V3.92104C2.5 3.37437 2.7425 2.91854 3.4425 2.85771Z" fill="white"/>
</svg>
