<svg width="24" height="24" viewBox="0 0 24 24" fill="none" xmlns="http://www.w3.org/2000/svg">
<g clip-path="url(#clip0_443_500)">
<path d="M14.2972 0.046875L16.7458 0.063C16.7919 0.0988125 16.8292 0.12225 16.8688 0.139875C17.3126 0.3405 17.7937 0.484125 18.1937 0.75075C19.3532 1.52138 20.4855 2.33344 21.617 3.14512C22.143 3.52144 22.6614 3.91331 23.1463 4.3395C23.5067 4.656 23.6685 5.10506 23.6694 5.58394L23.6685 20.6535C23.6679 20.8637 23.6319 21.0799 23.5734 21.282C23.3075 22.2034 22.7178 22.8339 21.7899 23.0801C21.3005 23.2097 20.7836 23.25 20.276 23.2918C19.4842 23.3576 18.6896 23.3899 17.8963 23.4375L16.3955 23.5312L13.9925 23.6726L12.5152 23.7649L10.0888 23.9055L8.83479 23.9569C8.79448 23.9589 8.75716 24.0154 8.7191 24.0469C7.76473 24.0469 6.8111 24.0469 5.84866 24.0315C5.80254 23.9949 5.76748 23.9655 5.72641 23.9539C5.14479 23.7853 4.6571 23.4639 4.2821 22.9972C3.76273 22.3521 3.26922 21.687 2.76972 21.0264C2.15585 20.2148 1.52604 19.4151 0.945912 18.5801C0.60493 18.0923 0.422295 17.5113 0.422787 16.9161C0.421152 12.4654 0.421715 8.01469 0.424475 3.564C0.424475 3.43575 0.446975 3.30619 0.4691 3.17869C0.701975 1.80844 1.71635 1.07737 2.92272 0.941812C3.54897 0.8715 4.17954 0.84 4.80879 0.798375L6.47191 0.702375L7.18685 0.6555L9.3431 0.4695L10.5384 0.37575L12.5182 0.235125L14.1814 0.136875C14.2219 0.134063 14.2592 0.078375 14.2972 0.046875ZM4.86504 21.4095C4.96479 21.5391 5.07597 21.6621 5.16316 21.7999C5.58579 22.4612 6.1916 22.7014 6.96129 22.6502L12.1755 22.3397L18.0435 21.9851L20.9651 21.7969C21.831 21.7273 22.2491 21.2593 22.266 20.3906V20.2031L22.2725 5.97881C22.2733 5.55037 22.1254 5.25075 21.7826 5.01131L17.6531 2.10131C16.9888 1.61794 16.2836 1.39237 15.4669 1.45687L10.8424 1.79887L6.00691 2.1555L2.97185 2.39213C2.35872 2.44837 1.97866 2.82338 1.86879 3.42488C1.84207 3.57842 1.82908 3.73403 1.82997 3.88987L1.81741 16.3102C1.8131 17.124 2.0621 17.8009 2.54922 18.4234L4.86504 21.4095Z" fill="#F8F8F8"/>
<path d="M4.85321 21.3972L2.54827 18.4234C2.06115 17.8009 1.81215 17.1242 1.81646 16.3105L1.82902 3.89009C1.82902 3.73484 1.84065 3.57734 1.86784 3.42509C1.97771 2.82378 2.35777 2.44878 2.9709 2.39234L6.00596 2.15572L10.8416 1.79909L15.4659 1.45709C16.2826 1.39259 16.9878 1.61815 17.6521 2.10153C19.0138 3.09247 20.4009 4.04834 21.7816 5.01153C22.1244 5.25097 22.2723 5.55059 22.2716 5.97903L22.265 20.2041V20.3916C22.2481 21.2595 21.83 21.7275 20.9641 21.7971C19.9916 21.8755 19.0168 21.9261 18.0425 21.9853L12.1745 22.3397L6.96034 22.6504C6.19065 22.7016 5.58484 22.4614 5.16221 21.8001C5.07502 21.6623 4.96384 21.5393 4.85321 21.3972ZM6.05434 12.7737V19.0527L6.05584 20.2238C6.06596 20.749 6.32321 21.0105 6.84821 21.0405C6.98002 21.0478 7.11334 21.0433 7.2459 21.0353L11.6413 20.7762L20.0347 20.2963C20.5578 20.2671 20.7995 20.0378 20.8485 19.5193C20.858 19.4262 20.855 19.3318 20.855 19.2381L20.8558 7.14865C20.8558 7.07834 20.858 7.00803 20.8537 6.93772C20.8222 6.45659 20.6156 6.26028 20.1375 6.28578L15.8116 6.53497C13.7855 6.65284 11.7594 6.77146 9.73327 6.89084L6.69446 7.07328C6.30709 7.09803 6.13196 7.26509 6.07346 7.64384C6.05961 7.74429 6.05347 7.84564 6.05509 7.94703L6.05434 12.7737ZM16.7741 2.88734C16.4071 2.68822 16.0087 2.62222 15.5985 2.6449C14.9679 2.6794 14.3373 2.73134 13.7066 2.7769L4.71615 3.43015C4.44446 3.44984 4.17127 3.46953 3.90315 3.51809C3.81315 3.53422 3.69952 3.62497 3.67177 3.70709C3.65115 3.76484 3.74209 3.88147 3.80865 3.94522C3.93184 4.06297 4.07377 4.16178 4.20802 4.26809C4.52659 4.51934 4.86559 4.74847 5.1579 5.02615C5.71234 5.55265 6.35752 5.67434 7.09665 5.6209L12.9157 5.25603L19.1801 4.88028C19.2373 4.87747 19.2945 4.85984 19.4203 4.8364C19.3053 4.71697 19.2386 4.62547 19.1516 4.56097C18.8447 4.33431 18.5349 4.11167 18.2221 3.89309C17.7417 3.55459 17.259 3.21934 16.7741 2.88734Z" fill="#0F1215"/>
<path d="M6.05565 12.7501L6.0564 7.94695C6.0564 7.8457 6.0594 7.74333 6.07477 7.64377C6.13327 7.26502 6.3084 7.09814 6.69577 7.0732L9.73459 6.89077L15.813 6.53489L20.1386 6.2857C20.6169 6.2602 20.8235 6.45708 20.8548 6.93764C20.8593 7.00795 20.8571 7.07827 20.8571 7.14858L20.8563 19.238L20.8498 19.5193C20.8008 20.0377 20.5591 20.267 20.036 20.2963L11.6426 20.7761L7.24721 21.0352L6.84971 21.0405C6.32452 21.0105 6.06727 20.7489 6.05715 20.2245L6.05565 19.0526V12.7501ZM14.6368 12.7625L12.224 9.08658C12.1398 8.95833 12.0571 8.91595 11.9019 8.93283L10.8735 9.0022L8.98159 9.14077C8.51659 9.18333 8.23534 9.62058 8.36415 10.074L9.36615 10.1596V18.2771L8.68365 18.4696C8.38102 18.5589 8.25146 18.8139 8.35327 19.1398L10.661 19.0072L11.57 18.9326C11.9619 18.8681 12.1728 18.6279 12.2255 18.236L10.9636 17.9482V11.8426L11.0574 11.9739L13.9576 16.5024C14.384 17.1637 14.8218 17.8176 15.2709 18.4636C15.591 18.923 16.0627 19.0636 16.593 18.9493C16.9248 18.8784 17.2434 18.7436 17.5685 18.6388C17.7378 18.5838 17.7956 18.4828 17.7948 18.293L17.7892 9.94927C17.7892 9.46158 17.7892 9.46158 18.2716 9.36427C18.7595 9.26602 18.8818 9.0712 18.7704 8.54977L15.8548 8.72695C15.5375 8.74964 15.2973 9.01477 15.2491 9.3232C15.2255 9.47189 15.2563 9.55383 15.4342 9.56414L16.317 9.66164V15.3202C15.7578 14.4673 15.1978 13.615 14.6368 12.7633V12.7625ZM16.7913 2.89533C17.27 3.22585 17.7472 3.55835 18.2231 3.89283C18.5359 4.11146 18.8458 4.33417 19.1527 4.56089C19.2397 4.62539 19.3065 4.71689 19.4214 4.83633L19.1812 4.8802L12.9168 5.25595L7.09777 5.62083C6.35865 5.67427 5.71346 5.55258 5.15902 5.02608C4.86671 4.74858 4.52771 4.51927 4.20896 4.26802C4.0749 4.1617 3.93296 4.06289 3.80977 3.94495C3.74321 3.8812 3.65227 3.76495 3.6729 3.70683C3.70065 3.62489 3.81502 3.53414 3.90427 3.51802C4.1724 3.46964 4.44559 3.44977 4.71727 3.43008L13.7079 2.77683L15.5998 2.64483C16.0098 2.62233 16.4083 2.68795 16.7913 2.89533Z" fill="#F8F8F8"/>
<path d="M14.6462 12.7764L16.3163 15.3202V9.66149L15.4337 9.56399C15.2556 9.55387 15.2249 9.47193 15.2483 9.32324C15.2967 9.0148 15.537 8.74968 15.8539 8.72699L18.7697 8.5498C18.8811 9.07105 18.7589 9.26606 18.271 9.36412C17.7884 9.46087 17.7884 9.46087 17.7884 9.9493L17.7942 18.2931C17.7949 18.4828 17.7372 18.5839 17.5679 18.6388L16.5923 18.9493C16.062 19.0629 15.5903 18.9231 15.2704 18.4637C14.8215 17.8175 14.3837 17.1636 13.9572 16.5024L11.0565 11.9737C11.0361 11.9415 11.0127 11.9115 10.9628 11.8427V17.9482L12.2249 18.2361C12.1722 18.6279 11.9612 18.8679 11.5694 18.9326C11.2705 18.9816 10.9637 18.9889 10.6604 19.0072L8.35261 19.1398C8.2508 18.8139 8.38036 18.5589 8.68298 18.4697L9.36548 18.2771V10.1597L8.36348 10.074C8.23467 9.62062 8.51592 9.18337 8.98092 9.1408C9.61017 9.08212 10.2422 9.04631 10.8728 9.00243C11.2155 8.97899 11.5598 8.97018 11.9012 8.93287C12.0565 8.91599 12.1394 8.95837 12.2234 9.08662L14.6462 12.7764Z" fill="#0F1215"/>
</g>
<defs>
<clipPath id="clip0_443_500">
<rect width="24" height="24" fill="white"/>
</clipPath>
</defs>
</svg>
