<svg width="20" height="20" viewBox="0 0 20 20" fill="none" xmlns="http://www.w3.org/2000/svg">
<path d="M0.938315 13.7896C0.64108 13.496 0.405084 13.1464 0.244012 12.7609C0.0829409 12.3755 0 11.9619 0 11.5441C0 11.1264 0.0829409 10.7128 0.244012 10.3274C0.405084 9.94191 0.64108 9.59227 0.938315 9.29873L4.33665 5.9304C4.84224 5.43087 5.49868 5.11234 6.20395 5.02434C6.90922 4.93633 7.62381 5.08377 8.23665 5.44373C8.61665 5.66873 8.61332 6.18207 8.30082 6.49207C7.98832 6.80207 7.47748 6.7754 7.05331 6.65207C6.77753 6.57125 6.48513 6.56581 6.20653 6.6363C5.92793 6.7068 5.67331 6.85065 5.46915 7.0529L2.07081 10.4212C1.92218 10.568 1.80418 10.7429 1.72364 10.9356C1.6431 11.1284 1.60162 11.3352 1.60162 11.5441C1.60162 11.7531 1.6431 11.9599 1.72364 12.1526C1.80418 12.3454 1.92218 12.5203 2.07081 12.6671C2.69581 13.2871 3.71081 13.2871 4.33665 12.6671L11.1325 5.9304C11.736 5.33472 12.5499 5.00072 13.3979 5.00072C14.2459 5.00072 15.0598 5.33472 15.6633 5.9304L19.0616 9.29873C19.3589 9.59227 19.5949 9.94191 19.7559 10.3274C19.917 10.7128 20 11.1264 20 11.5441C20 11.9619 19.917 12.3755 19.7559 12.7609C19.5949 13.1464 19.3589 13.496 19.0616 13.7896C18.4581 14.3852 17.6442 14.7192 16.7962 14.7192C15.9482 14.7192 15.1344 14.3852 14.5308 13.7896L13.3975 12.6671L11.9825 14.0704C11.4768 14.5698 10.8203 14.8882 10.115 14.976C9.40977 15.0639 8.69524 14.9163 8.08248 14.5562C7.70165 14.3329 7.70498 13.8187 8.01748 13.5087C8.33082 13.1987 8.84082 13.2254 9.26581 13.3487C9.54148 13.4294 9.83371 13.4347 10.1121 13.3643C10.3906 13.2938 10.6451 13.15 10.8491 12.9479L12.3058 11.5037C12.5967 11.2165 12.9891 11.0554 13.3979 11.0554C13.8067 11.0554 14.1991 11.2165 14.49 11.5037L15.6633 12.6671C16.2883 13.2871 17.3033 13.2871 17.9291 12.6671C18.0778 12.5203 18.1958 12.3454 18.2763 12.1526C18.3569 11.9599 18.3983 11.7531 18.3983 11.5441C18.3983 11.3352 18.3569 11.1284 18.2763 10.9356C18.1958 10.7429 18.0778 10.568 17.9291 10.4212L14.5308 7.0529C14.229 6.75493 13.822 6.58786 13.3979 6.58786C12.9738 6.58786 12.5668 6.75493 12.265 7.0529L5.46915 13.7896C4.8656 14.3852 4.05173 14.7192 3.20373 14.7192C2.35573 14.7192 1.54186 14.3852 0.938315 13.7896Z" fill="white"/>
</svg>
