<svg width="32" height="32" viewBox="0 0 32 32" fill="none" xmlns="http://www.w3.org/2000/svg">
<g clip-path="url(#clip0_345_160)">
<path d="M0.000227208 16.0482C-0.0464395 7.19624 7.10156 0.0482403 15.9522 0.000240293C24.8029 -0.0477597 31.9522 7.10157 32.0002 15.9536C32.0482 24.8056 24.8989 31.9522 16.0482 32.0002H16.0002C7.19623 32.0002 0.0482272 24.8522 0.000227208 16.0482ZM0.473561 16.0482C0.473561 24.6162 7.43223 31.5736 16.0002 31.5736C24.5682 31.5736 31.5269 24.6162 31.5269 16.0482C31.5269 7.48024 24.6149 0.56824 16.0482 0.521574H16.0002C7.43223 0.521574 0.473561 7.48024 0.473561 16.0482ZM18.7509 26.7882C18.817 26.8698 18.8664 26.9636 18.8962 27.0642C18.9294 27.1708 18.9456 27.282 18.9442 27.3936C18.9465 27.5202 18.9261 27.6461 18.8842 27.7656C18.8527 27.8656 18.7989 27.9572 18.7268 28.0334C18.6547 28.1096 18.5663 28.1685 18.4682 28.2056C18.3636 28.2436 18.2529 28.2625 18.1416 28.2616C18.0216 28.2625 17.9025 28.2404 17.7909 28.1962C17.6944 28.1567 17.6086 28.095 17.5402 28.0162C17.4724 27.9342 17.4216 27.8395 17.3909 27.7376C17.3591 27.6256 17.342 27.51 17.3402 27.3936C17.3385 27.2806 17.3547 27.1681 17.3882 27.0602C17.4197 26.9592 17.4709 26.8654 17.5389 26.7842C17.6067 26.7024 17.6931 26.6379 17.7909 26.5962C17.9021 26.5488 18.022 26.5252 18.1429 26.5269C18.2663 26.5225 18.3891 26.5467 18.5016 26.5976C18.5987 26.6404 18.6841 26.7057 18.7509 26.7882ZM20.6682 26.7882C20.7343 26.8698 20.7837 26.9636 20.8136 27.0642C20.8467 27.1708 20.8629 27.282 20.8616 27.3936C20.8638 27.5202 20.8435 27.6461 20.8016 27.7656C20.766 27.8662 20.7107 27.9587 20.6389 28.0376C20.5685 28.1123 20.4818 28.1698 20.3856 28.2056C20.2809 28.2436 20.1703 28.2625 20.0589 28.2616C19.9389 28.2625 19.8198 28.2404 19.7082 28.1962C19.6117 28.1567 19.5259 28.095 19.4576 28.0162C19.3897 27.9342 19.339 27.8395 19.3082 27.7376C19.2768 27.6255 19.2603 27.5099 19.2589 27.3936C19.2571 27.2806 19.2733 27.1681 19.3069 27.0602C19.338 26.9593 19.3887 26.8655 19.4562 26.7842C19.524 26.7024 19.6104 26.6379 19.7082 26.5962C19.8194 26.5488 19.9393 26.5252 20.0602 26.5269C20.1836 26.5225 20.3064 26.5467 20.4189 26.5976C20.516 26.6404 20.6015 26.7057 20.6682 26.7882ZM12.5176 27.4762C12.5577 27.5116 12.5904 27.5547 12.6136 27.6029C12.6358 27.6509 12.6469 27.7096 12.6469 27.7789C12.6486 27.8439 12.6355 27.9085 12.6084 27.9676C12.5814 28.0268 12.5412 28.079 12.4909 28.1202C12.3759 28.2113 12.2321 28.2581 12.0856 28.2522C11.9413 28.2522 11.801 28.2055 11.6856 28.1189L11.6549 28.2176H11.5402L11.5256 27.6949H11.6309C11.6566 27.7997 11.7074 27.8967 11.7789 27.9776C11.8196 28.0233 11.8679 28.0616 11.9216 28.0909C11.9791 28.1214 12.0431 28.1374 12.1082 28.1376C12.206 28.1376 12.2811 28.1149 12.3336 28.0696C12.386 28.0242 12.4127 27.9607 12.4136 27.8789C12.4132 27.8406 12.4045 27.8029 12.3882 27.7682C12.3697 27.7363 12.3447 27.7087 12.3149 27.6869C12.2759 27.6618 12.2343 27.6408 12.1909 27.6242C12.1375 27.602 12.0827 27.5833 12.0269 27.5682C11.9734 27.5504 11.9205 27.5308 11.8682 27.5096C11.8144 27.487 11.7637 27.4574 11.7176 27.4216C11.6722 27.3864 11.6349 27.3418 11.6082 27.2909C11.5795 27.2339 11.5649 27.1708 11.5656 27.1069C11.5656 26.9842 11.6113 26.8802 11.7029 26.7949C11.8047 26.7077 11.9356 26.662 12.0696 26.6669C12.1851 26.6635 12.2995 26.6901 12.4016 26.7442L12.4362 26.6642H12.5456L12.5696 27.1482H12.4642C12.4463 27.048 12.3979 26.9558 12.3256 26.8842C12.2913 26.8511 12.2508 26.825 12.2064 26.8076C12.162 26.7902 12.1146 26.7818 12.0669 26.7829C12.0317 26.7798 11.9963 26.7838 11.9626 26.7946C11.929 26.8053 11.8978 26.8227 11.8709 26.8456C11.8478 26.8635 11.8293 26.8866 11.8168 26.913C11.8043 26.9394 11.7982 26.9684 11.7989 26.9976C11.7989 27.0429 11.8069 27.0811 11.8229 27.1122C11.8392 27.1438 11.8636 27.1705 11.8936 27.1896C11.9293 27.2132 11.9678 27.2325 12.0082 27.2469L12.1802 27.3069C12.2478 27.3282 12.3109 27.3531 12.3696 27.3816C12.4229 27.4065 12.4726 27.4383 12.5176 27.4762ZM13.8029 28.1482C13.7371 28.1749 13.6745 28.198 13.6149 28.2176C13.5449 28.2387 13.4719 28.2481 13.3989 28.2456C13.2727 28.2456 13.1838 28.2136 13.1322 28.1496C13.0773 28.0709 13.0506 27.976 13.0562 27.8802V26.8616H12.7842V26.7149H13.0616V26.2469H13.3389V26.7149H13.7709V26.8616H13.3429V27.7016C13.3429 27.7656 13.3451 27.8185 13.3496 27.8602C13.352 27.899 13.363 27.9368 13.3816 27.9709C13.3983 28.0003 13.424 28.0237 13.4549 28.0376C13.4962 28.0562 13.5417 28.064 13.5869 28.0602C13.6594 28.0581 13.7317 28.0501 13.8029 28.0362V28.1482ZM14.4762 28.0376C14.4762 28.0648 14.4707 28.0917 14.4599 28.1167C14.4491 28.1417 14.4333 28.1642 14.4136 28.1829C14.3946 28.2026 14.3718 28.2182 14.3466 28.2288C14.3214 28.2393 14.2942 28.2446 14.2669 28.2442C14.2396 28.2446 14.2124 28.2393 14.1872 28.2288C14.162 28.2182 14.1392 28.2026 14.1202 28.1829C14.1004 28.1642 14.0847 28.1417 14.0739 28.1167C14.0631 28.0917 14.0576 28.0648 14.0576 28.0376C14.0574 28.0101 14.0629 27.983 14.0736 27.9577C14.0844 27.9325 14.1003 27.9097 14.1202 27.8909C14.1391 27.871 14.1618 27.8551 14.187 27.8443C14.2123 27.8335 14.2395 27.8281 14.2669 27.8282C14.3247 27.8282 14.3736 27.8491 14.4136 27.8909C14.4335 27.9097 14.4494 27.9325 14.4601 27.9577C14.4709 27.983 14.4764 28.0101 14.4762 28.0376ZM11.3429 27.5749L11.3016 28.2136H9.50423V28.1042C9.53445 28.1025 9.57534 28.0985 9.62689 28.0922C9.66055 28.0893 9.6937 28.0822 9.72556 28.0709C9.75433 28.0598 9.77836 28.0391 9.79356 28.0122C9.80533 27.9825 9.81165 27.9509 9.81223 27.9189V26.3629C9.81204 26.3324 9.80663 26.3022 9.79623 26.2736C9.78136 26.2443 9.7562 26.2215 9.72556 26.2096L9.61489 26.1749L9.50423 26.1562V26.0482H11.1789V26.5696H11.0642C11.0384 26.4795 10.9939 26.3959 10.9336 26.3242C10.866 26.2371 10.8016 26.1896 10.7402 26.1816L10.6269 26.1722C10.5824 26.1705 10.5327 26.1696 10.4776 26.1696H10.1376V27.0296H10.3816C10.4397 27.0315 10.4978 27.0238 10.5536 27.0069C10.5903 26.99 10.6226 26.9649 10.6482 26.9336C10.6738 26.8975 10.6931 26.8574 10.7056 26.8149C10.7187 26.7688 10.7294 26.7221 10.7376 26.6749H10.8509V27.5242H10.7376C10.7317 27.4713 10.7205 27.419 10.7042 27.3682C10.6921 27.3263 10.6732 27.2867 10.6482 27.2509C10.6209 27.2144 10.5833 27.187 10.5402 27.1722C10.4885 27.1585 10.435 27.1527 10.3816 27.1549H10.1376V27.8029C10.1376 27.8678 10.142 27.9194 10.1509 27.9576C10.1568 27.9919 10.176 28.0225 10.2042 28.0429C10.2309 28.0607 10.2669 28.0731 10.3122 28.0802C10.3584 28.0856 10.4238 28.0882 10.5082 28.0882H10.6402C10.6953 28.0882 10.742 28.086 10.7802 28.0816C10.8201 28.0763 10.8597 28.0691 10.8989 28.0602C10.9316 28.0537 10.962 28.0385 10.9869 28.0162C11.0466 27.9499 11.0964 27.8754 11.1349 27.7949C11.1864 27.6954 11.2189 27.622 11.2322 27.5749H11.3429ZM22.6162 28.2136H21.1869V28.0042C21.223 27.9669 21.2613 27.9318 21.3016 27.8989C21.4028 27.8188 21.5098 27.7462 21.6216 27.6816L21.8149 27.5749C21.8949 27.5322 21.9567 27.4945 22.0002 27.4616C22.0459 27.4281 22.086 27.3876 22.1189 27.3416C22.144 27.3054 22.1629 27.2653 22.1749 27.2229C22.1922 27.1573 22.1994 27.0894 22.1962 27.0216C22.1962 26.8954 22.162 26.802 22.0936 26.7416C22.0198 26.6817 21.9272 26.65 21.8322 26.6522C21.7656 26.6522 21.7029 26.6651 21.6442 26.6909C21.5904 26.7135 21.5442 26.751 21.5109 26.7989L21.5376 26.9149C21.5483 26.9576 21.5536 27.0015 21.5536 27.0456C21.5538 27.0654 21.5496 27.085 21.5413 27.103C21.533 27.121 21.5208 27.1369 21.5056 27.1496C21.4744 27.1789 21.4269 27.1936 21.3629 27.1936C21.3405 27.1955 21.3181 27.1917 21.2976 27.1826C21.277 27.1735 21.2592 27.1594 21.2456 27.1416C21.2164 27.1004 21.2019 27.0506 21.2042 27.0002C21.2042 26.946 21.2198 26.8909 21.2509 26.8349C21.2843 26.776 21.3287 26.7239 21.3816 26.6816C21.4437 26.6322 21.5141 26.5942 21.5896 26.5696C21.6754 26.5403 21.7656 26.5259 21.8562 26.5269C22.0651 26.5269 22.2304 26.5736 22.3522 26.6669C22.4749 26.7602 22.5362 26.8842 22.5362 27.0389C22.5361 27.1077 22.5253 27.1761 22.5042 27.2416C22.4826 27.3037 22.446 27.3596 22.3976 27.4042C22.3413 27.4576 22.2775 27.5025 22.2082 27.5376C22.099 27.5913 21.9888 27.6428 21.8776 27.6922C21.7887 27.7305 21.7064 27.7718 21.6309 27.8162C21.5648 27.8526 21.5019 27.8946 21.4429 27.9416H22.6162V28.2136ZM17.0362 28.2136H15.6069V28.0042C15.6426 27.967 15.6804 27.9318 15.7202 27.8989C15.8789 27.7716 16.0515 27.6629 16.2349 27.5749C16.3149 27.5322 16.3767 27.4945 16.4202 27.4616C16.4647 27.4268 16.5046 27.3864 16.5389 27.3416C16.564 27.3054 16.5829 27.2653 16.5949 27.2229C16.6122 27.1573 16.6194 27.0894 16.6162 27.0216C16.6162 26.8954 16.582 26.802 16.5136 26.7416C16.4398 26.6817 16.3472 26.65 16.2522 26.6522C16.1856 26.6522 16.1229 26.6651 16.0642 26.6909C16.0104 26.7135 15.9642 26.751 15.9309 26.7989L15.9576 26.9149C15.9683 26.9576 15.9736 27.0015 15.9736 27.0456C15.9738 27.0654 15.9696 27.085 15.9613 27.103C15.953 27.121 15.9408 27.1369 15.9256 27.1496C15.8945 27.1789 15.8469 27.1936 15.7829 27.1936C15.7605 27.1955 15.7381 27.1917 15.7176 27.1826C15.6971 27.1735 15.6792 27.1594 15.6656 27.1416C15.6364 27.1004 15.6219 27.0506 15.6242 27.0002C15.6242 26.946 15.6398 26.8909 15.6709 26.8349C15.7043 26.776 15.7487 26.7239 15.8016 26.6816C15.8637 26.6322 15.9341 26.5942 16.0096 26.5696C16.0954 26.5403 16.1856 26.5259 16.2762 26.5269C16.4525 26.5176 16.6269 26.5668 16.7722 26.6669C16.8949 26.7602 16.9562 26.8842 16.9562 27.0389C16.9584 27.108 16.947 27.1768 16.9229 27.2416C16.9016 27.3036 16.8655 27.3595 16.8176 27.4042C16.7613 27.4576 16.6975 27.5025 16.6282 27.5376C16.519 27.5913 16.4088 27.6428 16.2976 27.6922C16.2087 27.7305 16.126 27.7718 16.0496 27.8162C15.9839 27.8527 15.9215 27.8946 15.8629 27.9416H17.0362V28.2136ZM18.6069 27.3936C18.6069 27.1518 18.5656 26.9642 18.4829 26.8309C18.4495 26.7703 18.4005 26.7198 18.3409 26.6846C18.2813 26.6495 18.2134 26.6309 18.1442 26.6309C18.0746 26.6304 18.0061 26.6487 17.946 26.6839C17.886 26.7192 17.8365 26.7699 17.8029 26.8309C17.7193 26.9642 17.6776 27.1518 17.6776 27.3936C17.6776 27.6238 17.7176 27.8087 17.7976 27.9482C17.8776 28.0887 17.9922 28.1589 18.1416 28.1589C18.2909 28.1589 18.406 28.0887 18.4869 27.9482C18.5744 27.7769 18.6158 27.5857 18.6069 27.3936ZM20.5242 27.3936C20.5242 27.1518 20.4829 26.9642 20.4002 26.8309C20.3176 26.6976 20.2051 26.6309 20.0629 26.6309C19.993 26.6302 19.9243 26.6484 19.864 26.6836C19.8036 26.7188 19.754 26.7697 19.7202 26.8309C19.6376 26.9642 19.5958 27.1518 19.5949 27.3936C19.5949 27.6238 19.6349 27.8087 19.7149 27.9482C19.7949 28.0887 19.9096 28.1589 20.0589 28.1589C20.1306 28.1607 20.2013 28.1418 20.2626 28.1044C20.3238 28.067 20.373 28.0128 20.4042 27.9482C20.4918 27.7769 20.5331 27.5857 20.5242 27.3936ZM6.86423 25.9416H6.76956C4.35489 23.7162 2.88823 20.6869 2.55623 17.4202C2.60423 17.3256 2.65089 17.3256 2.74556 17.3256L2.79356 17.3736C3.12365 20.5643 4.60434 23.5257 6.95889 25.7042C7.00689 25.7522 7.00689 25.8469 6.95889 25.8936H6.86423V25.9416ZM25.1829 25.9416H24.9936C24.9469 25.8936 24.9469 25.7989 24.9936 25.7522C27.3616 23.5736 28.8282 20.5922 29.1602 17.3736C29.1122 17.2789 29.1602 17.2309 29.2549 17.1842C29.3496 17.1362 29.3962 17.1842 29.4442 17.2789C29.4442 17.3256 29.4442 17.3736 29.3962 17.4202C29.0625 20.675 27.5666 23.7004 25.1829 25.9416ZM16.1896 11.3442C16.1805 10.7009 16.0521 10.0648 15.8109 9.46824C16.2842 9.46824 16.7109 9.37357 17.1362 9.18424C17.1362 9.84691 17.2789 10.4616 17.5149 11.0776C17.0482 11.0776 16.6282 11.1696 16.2082 11.3536C16.8989 11.6762 17.2949 13.2816 17.6576 13.9642L17.0416 14.2962C17.4682 14.9589 17.7989 15.6696 17.9416 16.4269L18.6989 15.8109L18.3669 15.6696C18.6042 15.1962 18.9829 14.8176 19.4562 14.5336C19.6922 14.8176 19.9762 15.0536 20.2602 15.2429C19.8209 15.5254 19.4622 15.9167 19.2189 16.3789L18.7936 15.9536C18.4616 16.3789 18.1776 16.9002 17.9882 17.4202C18.0362 17.9882 17.9882 18.6042 17.8469 19.1722C18.3233 18.8948 18.858 18.7327 19.4082 18.6989C19.5505 18.13 19.882 17.7038 20.4029 17.4202L19.8816 16.8056C20.4496 16.2376 21.5389 15.1962 22.1536 15.0536C22.7224 15.5745 23.1487 16.19 23.4322 16.9002C22.5203 17.0939 21.673 17.5175 20.9709 18.1309L20.5442 17.5149C20.2593 17.8318 20.0779 18.2281 20.0242 18.6509C20.7336 18.6042 21.4909 18.6509 22.2016 18.7456C22.2482 18.4616 22.2962 18.2256 22.2482 17.9416C22.6269 17.8936 24.1416 17.9416 24.9936 18.5562C24.8042 19.1722 24.6629 19.8349 24.6629 20.4976C24.6629 20.4976 22.9109 19.7402 21.9176 19.9296C22.0122 19.6456 22.1069 19.3136 22.1536 19.0296C21.1553 18.935 20.1489 19.0813 19.2189 19.4562L20.1656 19.6456C20.2175 19.5418 20.2496 19.4292 20.2602 19.3136C20.7816 19.4082 21.2549 19.6922 21.6336 20.0709C21.3591 20.3079 21.1614 20.6212 21.0656 20.9709C20.6671 20.6336 20.1977 20.3907 19.6922 20.2602L20.0242 19.7402C19.5976 19.6922 19.1722 19.6456 18.7456 19.6922L17.9882 20.2136C17.6985 20.4932 17.4725 20.832 17.3256 21.2069C17.4682 21.3962 17.5149 21.6336 17.5149 21.8696C17.5629 22.2482 17.3736 22.5802 17.0416 22.7696C17.0416 23.2896 17.2309 23.8109 17.5629 24.1896L17.7856 24.3322H24.1416V24.5682H7.81089V24.3322H14.0696C14.3402 24.1776 14.5456 24.0416 14.5802 23.9056C14.77 23.0799 14.77 22.2219 14.5802 21.3962C14.1978 20.6397 13.5353 20.0623 12.7336 19.7869C12.4496 19.8349 12.1656 19.9762 11.8816 20.1189L12.3549 20.4496C11.9156 20.7321 11.5568 21.1234 11.3136 21.5856C11.0776 21.3016 10.7936 21.0656 10.5096 20.8282C10.7456 20.3549 11.1242 19.9762 11.5976 19.6922L11.8349 19.9296C12.0242 19.7869 12.2136 19.6456 12.4496 19.5976C11.6456 19.3136 10.7936 19.0776 9.94156 18.9829V19.8349C8.99489 19.7402 8.09489 19.8349 7.19623 20.1656C7.19623 20.0709 6.91223 18.7456 7.24289 17.9416C7.57489 17.1362 9.37356 17.9882 10.1309 18.1309C10.0829 18.3202 10.0362 18.5562 9.98823 18.7456C10.582 18.6441 11.1857 18.6123 11.7869 18.6509C11.496 18.2244 11.0841 17.8947 10.6042 17.7042C10.1979 17.5202 9.81624 17.2859 9.46823 17.0069C9.38776 16.9575 9.30862 16.9059 9.23089 16.8522L9.26289 16.8336L9.23089 16.8056L8.52156 17.1842C8.37889 16.2842 7.90556 15.3856 7.29089 14.7229C8.00023 14.5802 8.66289 14.2962 9.27889 13.9642C9.37356 14.6282 9.51489 16.0002 9.98823 16.6162C9.73108 16.6207 9.48012 16.6959 9.26289 16.8336C9.33134 16.8931 9.39978 16.9509 9.46823 17.0069C9.88956 17.2576 10.3642 17.4429 10.8402 17.5629C10.7947 17.3282 10.7947 17.0869 10.8402 16.8522H10.5096C10.4543 16.4424 10.4701 16.0261 10.5562 15.6216C10.8882 15.5749 11.2189 15.6216 11.5029 15.7162C11.3134 16.082 11.2159 16.4884 11.2189 16.9002H10.8402C10.8402 17.1842 10.8882 17.4202 11.0296 17.6576C11.6456 17.8469 12.2136 18.2722 12.5442 18.8402L13.8229 19.1722C13.8229 18.9349 13.7749 18.6989 13.6802 18.5096L13.3496 18.6042C13.2675 18.1946 13.0705 17.8167 12.7816 17.5149C13.0656 17.3736 13.3962 17.2309 13.7282 17.1842C13.9176 17.5629 14.0122 17.9416 14.0589 18.3669H13.6802C13.8229 18.6042 13.9176 18.8402 13.9642 19.1242L14.7216 19.4562C14.807 18.3399 14.4503 17.2346 13.7282 16.3789L12.9709 16.9949C12.7336 16.0002 11.2669 14.7229 11.2669 14.7229C11.8453 14.4306 12.3726 14.0465 12.8282 13.5856C13.7282 14.0589 14.3909 15.4322 14.5322 15.8109L13.8229 16.1896L14.6749 16.9002L15.0056 17.3736C15.1949 17.2309 15.3376 17.0416 15.4789 16.8056L15.0056 16.6629C15.3376 16.1896 15.5269 15.6696 15.6216 15.1016C15.9522 15.3376 16.3322 15.4802 16.7109 15.5269C16.6644 16.1036 16.4687 16.6582 16.1429 17.1362L15.6682 16.9002C15.576 17.2018 15.4139 17.4773 15.1949 17.7042C15.4789 18.3202 15.6682 19.0296 15.9522 19.6922C17.6576 18.2722 17.1842 15.5749 16.8522 14.3442L16.0482 14.9589C15.491 14.0781 14.7271 13.3467 13.8229 12.8282C13.8696 12.7816 14.8642 11.5509 15.8109 11.3136C15.937 11.2815 16.0702 11.2923 16.1896 11.3442V11.3616L16.2082 11.3536L16.1896 11.3442ZM17.0896 21.7749C17.1362 21.5856 17.0416 21.3962 16.8522 21.3016C16.6629 21.3496 16.5682 21.5389 16.5682 21.7282C16.5216 21.9176 16.6162 22.1069 16.8056 22.2016C16.9949 22.1536 17.1362 21.9642 17.0896 21.7749ZM16.7576 20.9229C16.4269 21.0176 16.2842 21.3962 16.3789 21.9176C16.3612 21.7521 16.3819 21.5848 16.4395 21.4287C16.4971 21.2726 16.59 21.1319 16.7109 21.0176C16.8522 20.9229 16.7576 20.8762 16.7576 20.8762V20.9229ZM24.4736 18.1776C24.5682 17.8469 24.1416 16.7576 23.7629 16.0002C24.8511 15.9086 25.9038 15.5688 26.8402 15.0069C26.9349 15.7642 27.1722 16.5216 27.5509 17.1842C26.9829 17.0896 25.1362 17.7989 24.4736 18.1776ZM7.48023 15.7162C7.29089 15.9536 7.24289 16.9949 7.29089 17.7042C6.38662 17.4299 5.44089 17.318 4.49756 17.3736C4.68689 16.7109 4.78156 16.0482 4.68689 15.3856C5.11223 15.7162 6.81756 15.7642 7.48023 15.7162ZM3.25356 15.8096L3.26556 16.4002L3.19889 16.4016L3.19223 16.3296C3.19097 16.3074 3.18693 16.2854 3.18023 16.2642C3.17231 16.2474 3.16095 16.2324 3.14689 16.2202C3.12861 16.2114 3.10854 16.2068 3.08823 16.2069L2.13756 16.2256C2.11924 16.2254 2.10108 16.2291 2.08423 16.2362C2.07 16.2442 2.058 16.2607 2.04823 16.2856C2.03986 16.3085 2.03361 16.3322 2.02956 16.3562C2.02406 16.3786 2.02049 16.4013 2.01889 16.4242L1.95356 16.4256L1.94156 15.8349L2.00823 15.8336C2.00823 15.8531 2.01089 15.8762 2.01623 15.9029C2.01957 15.926 2.02492 15.9488 2.03223 15.9709C2.04023 15.994 2.05267 16.0096 2.06956 16.0176C2.08724 16.0251 2.10634 16.0288 2.12556 16.0282L3.07489 16.0109C3.0935 16.0098 3.11167 16.0048 3.12823 15.9962C3.14495 15.985 3.15758 15.9686 3.16423 15.9496C3.18036 15.9051 3.18849 15.8582 3.18823 15.8109L3.25356 15.8096ZM29.9642 16.4149C29.963 16.3876 29.9576 16.3606 29.9482 16.3349C29.942 16.3081 29.9316 16.2825 29.9176 16.2589C29.9016 16.2376 29.8718 16.2234 29.8282 16.2162C29.7729 16.2101 29.7172 16.2074 29.6616 16.2082L28.7016 16.2309L28.6989 16.1496L29.7549 15.3309L29.0776 15.3456C29.019 15.3479 28.9606 15.3542 28.9029 15.3642C28.8703 15.3706 28.8405 15.3869 28.8176 15.4109C28.7902 15.4661 28.7726 15.5257 28.7656 15.5869L28.7002 15.5882L28.6869 15.0509L28.7536 15.0496C28.7623 15.1039 28.7794 15.1565 28.8042 15.2056C28.8251 15.2287 28.8534 15.2438 28.8842 15.2482C28.9442 15.2578 29.005 15.2605 29.0656 15.2562L29.7122 15.2416C29.7409 15.2408 29.7693 15.2354 29.7962 15.2256C29.8216 15.2186 29.8443 15.2042 29.8616 15.1842C29.8839 15.1571 29.9007 15.1259 29.9109 15.0922C29.9234 15.0631 29.9306 15.0319 29.9322 15.0002L29.9989 14.9989L30.0069 15.3736L29.0242 16.1336L29.6469 16.1189C29.7061 16.1192 29.7651 16.113 29.8229 16.1002C29.8638 16.0896 29.8909 16.0749 29.9042 16.0562C29.9181 16.0291 29.9288 16.0005 29.9362 15.9709C29.9449 15.9418 29.9503 15.9119 29.9522 15.8816L30.0189 15.8789L30.0309 16.4122L29.9642 16.4149ZM20.2136 13.3016C21.1122 12.8282 22.0122 11.1242 22.0122 11.1242C22.4376 11.6456 22.9109 12.0709 23.4789 12.4496C23.1949 13.4442 22.0589 14.4389 21.7282 14.6282C21.5856 14.4389 21.4442 14.2482 21.2549 14.1069C20.8711 14.5048 20.594 14.9933 20.4496 15.5269C20.5442 14.9589 20.7816 14.4389 21.0656 13.9642L20.2136 13.3016ZM23.0056 14.1536C23.7629 13.6802 24.8042 12.6869 25.0416 11.8816C25.5117 12.5397 26.0875 13.1154 26.7456 13.5856C26.0829 13.9642 24.7576 14.7696 24.3309 15.4802C24.0141 14.9287 23.5568 14.4709 23.0056 14.1536ZM2.16956 13.9256C2.16909 13.9524 2.17133 13.9792 2.17623 14.0056C2.17913 14.0332 2.18633 14.0602 2.19756 14.0856C2.21 14.1096 2.23756 14.1274 2.28023 14.1389C2.3347 14.1517 2.38992 14.1611 2.44556 14.1669L3.40156 14.2629L3.39356 14.3429L2.24556 15.0269L2.91889 15.0936C2.97723 15.1014 3.03626 15.1027 3.09489 15.0976C3.13667 15.0922 3.16689 15.0802 3.18556 15.0616C3.20594 15.037 3.22174 15.009 3.23223 14.9789C3.24349 14.9513 3.25241 14.9227 3.25889 14.8936L3.32423 14.8989L3.27089 15.4349L3.20556 15.4282C3.20373 15.3732 3.19338 15.3188 3.17489 15.2669C3.15687 15.2414 3.13044 15.2229 3.10023 15.2149C3.041 15.2006 2.98086 15.1903 2.92023 15.1842L2.27756 15.1202C2.2485 15.1177 2.21922 15.12 2.19089 15.1269C2.16563 15.1308 2.14202 15.1419 2.12289 15.1589C2.09699 15.183 2.07614 15.212 2.06156 15.2442C2.04517 15.2718 2.03388 15.302 2.02823 15.3336L1.96289 15.3269L2.00023 14.9536L3.06956 14.3189L2.44823 14.2576C2.3894 14.2501 2.32992 14.2492 2.27089 14.2549C2.23 14.2602 2.20156 14.2714 2.18556 14.2882C2.16826 14.3136 2.15395 14.3409 2.14289 14.3696C2.13075 14.3974 2.1218 14.4264 2.11623 14.4562L2.05089 14.4496L2.10423 13.9189L2.16956 13.9256ZM18.6042 13.2069C18.4616 13.8229 18.1776 14.4389 17.7989 14.9589C18.0786 14.3812 18.2395 13.7533 18.2722 13.1122L17.5149 12.9229C17.9882 12.3082 18.0829 10.9349 18.1309 10.2722C18.7936 10.6042 19.4562 10.8402 20.1656 10.9349C19.5976 11.4082 19.2189 12.6389 19.1242 13.4909L18.6042 13.2069ZM29.7669 14.3589C29.7131 14.4271 29.6465 14.4842 29.5709 14.5269C29.4864 14.5733 29.3943 14.604 29.2989 14.6176C29.2033 14.6328 29.1057 14.6305 29.0109 14.6109C28.9286 14.5935 28.8507 14.5598 28.7818 14.5117C28.7128 14.4636 28.6543 14.4021 28.6096 14.3309C28.5416 14.2233 28.5088 14.0972 28.5157 13.9701C28.5227 13.843 28.569 13.7212 28.6482 13.6216C28.7659 13.4855 28.9288 13.3965 29.1069 13.3709C29.2034 13.3554 29.3019 13.3576 29.3976 13.3776C29.4803 13.3937 29.5588 13.4267 29.6282 13.4745C29.6977 13.5223 29.7565 13.5839 29.801 13.6555C29.8456 13.7271 29.8749 13.8071 29.8871 13.8905C29.8994 13.9739 29.8943 14.0589 29.8722 14.1402C29.8544 14.2203 29.8183 14.2951 29.7669 14.3589ZM28.8269 14.3629C28.8873 14.3896 28.9536 14.4051 29.0256 14.4096C29.0984 14.414 29.178 14.4096 29.2642 14.3962C29.3465 14.3829 29.4272 14.362 29.5056 14.3336C29.5702 14.308 29.6305 14.2725 29.6842 14.2282C29.7308 14.1892 29.7663 14.1386 29.7871 14.0815C29.8079 14.0244 29.8134 13.9628 29.8029 13.9029C29.7943 13.837 29.767 13.775 29.7242 13.7242C29.6817 13.6774 29.6287 13.6413 29.5696 13.6189C29.5057 13.596 29.4387 13.5829 29.3709 13.5802C29.2128 13.5695 29.0543 13.5941 28.9069 13.6522C28.8432 13.6777 28.7839 13.7127 28.7309 13.7562C28.6825 13.7949 28.6453 13.8459 28.6233 13.9038C28.6012 13.9617 28.5951 14.0245 28.6056 14.0856C28.6154 14.147 28.6409 14.2048 28.6797 14.2534C28.7185 14.302 28.7692 14.3397 28.8269 14.3629ZM11.7869 13.4442C11.1242 13.4909 10.5096 13.7282 9.94156 14.0589C9.89356 13.1602 9.04156 11.8816 8.61623 11.2189C9.46823 11.1722 10.9829 10.4149 10.9829 10.4149C10.7936 11.2669 11.2669 12.5922 11.7869 13.4442ZM2.77623 12.4842L2.76156 12.5469C2.70039 12.5524 2.64026 12.5663 2.58289 12.5882C2.55285 12.599 2.5242 12.6133 2.49756 12.6309C2.4765 12.6438 2.45942 12.6622 2.44823 12.6842L2.39489 12.8842L3.42023 13.1136C3.43911 13.1177 3.45868 13.1177 3.47756 13.1136C3.49609 13.1054 3.5125 13.0931 3.52556 13.0776C3.53812 13.0572 3.54883 13.0358 3.55756 13.0136C3.57007 12.9885 3.5799 12.9621 3.58689 12.9349L3.65089 12.9496L3.51623 13.5536L3.45223 13.5402L3.46289 13.4616C3.46697 13.4364 3.46741 13.4108 3.46423 13.3856C3.4626 13.3663 3.45408 13.3483 3.44023 13.3349C3.42392 13.3217 3.40473 13.3126 3.38423 13.3082L2.35223 13.0776L2.32689 13.1989L2.31489 13.2802C2.31312 13.2998 2.32023 13.3229 2.33623 13.3496C2.39029 13.4259 2.4598 13.4899 2.54023 13.5376L2.52689 13.6002L2.17889 13.5229L2.42823 12.4069L2.77623 12.4842ZM7.48023 13.5389C7.19623 12.7816 6.01223 11.8816 6.01223 11.8816C6.43889 11.5976 6.81756 11.3136 7.14823 10.9349C7.81089 11.3136 8.33223 11.8349 8.66289 12.4976C8.23756 12.7816 7.81089 13.1122 7.48023 13.5389ZM28.3322 13.0909L28.1829 12.5202L28.2469 12.5029L28.2696 12.5722C28.2763 12.5938 28.2857 12.6144 28.2976 12.6336C28.3092 12.648 28.3238 12.6598 28.3402 12.6682C28.3601 12.6724 28.3806 12.6719 28.4002 12.6669L29.3189 12.4256C29.3373 12.4213 29.3546 12.4131 29.3696 12.4016C29.382 12.3909 29.3896 12.3722 29.3922 12.3456C29.394 12.326 29.3949 12.302 29.3949 12.2736C29.3947 12.2503 29.3925 12.2271 29.3882 12.2042L29.4522 12.1869L29.6016 12.7589L29.5389 12.7749L29.5136 12.7109C29.5038 12.686 29.4931 12.6647 29.4816 12.6469C29.4682 12.6274 29.4527 12.6154 29.4349 12.6109C29.4162 12.6078 29.3972 12.6087 29.3789 12.6136L28.4602 12.8549C28.4421 12.8602 28.4253 12.8693 28.4109 12.8816C28.3965 12.8957 28.3879 12.9147 28.3869 12.9349C28.3851 12.9482 28.3851 12.97 28.3869 13.0002L28.3962 13.0749L28.3322 13.0909ZM11.3616 11.1242C11.8349 10.9349 12.3082 10.6509 12.6869 10.2722C12.8282 10.9354 13.1122 11.5509 13.5389 12.1189C13.1602 12.2602 12.7816 12.4496 12.4976 12.7336C12.3082 12.1189 11.8816 11.5509 11.3616 11.1242ZM3.79889 11.1909L4.15489 11.3416L3.79489 12.3656L3.73356 12.3442L3.75089 12.2722L3.75889 12.2109C3.75799 12.192 3.75043 12.1741 3.73756 12.1602C3.72344 12.147 3.70661 12.137 3.68823 12.1309L2.80289 11.8202C2.78553 11.8133 2.7669 11.8102 2.74823 11.8109C2.73134 11.8118 2.71445 11.8211 2.69756 11.8389C2.6688 11.8745 2.64378 11.9129 2.62289 11.9536L2.56156 11.9322L2.89623 10.9789L3.19356 11.0829L3.17089 11.1482C3.11417 11.1447 3.05735 11.1534 3.00423 11.1736C2.94201 11.1949 2.90201 11.222 2.88423 11.2549L2.82556 11.4016L2.75756 11.5962L3.24689 11.7682L3.29623 11.6296C3.31006 11.5971 3.31731 11.5622 3.31756 11.5269C3.3166 11.5021 3.30875 11.4781 3.29489 11.4576C3.27912 11.4362 3.26024 11.4173 3.23889 11.4016C3.21615 11.3839 3.19157 11.3687 3.16556 11.3562L3.18823 11.2909L3.67089 11.4602L3.64823 11.5256C3.61726 11.5178 3.58548 11.5138 3.55356 11.5136C3.52709 11.5123 3.50057 11.515 3.47489 11.5216C3.44901 11.5297 3.42622 11.5455 3.40956 11.5669C3.39189 11.594 3.37756 11.6231 3.36689 11.6536L3.31889 11.7936L3.68823 11.9229C3.72556 11.9354 3.75578 11.9429 3.77889 11.9456C3.79944 11.9489 3.82048 11.9441 3.83756 11.9322C3.85636 11.9181 3.87108 11.8992 3.88023 11.8776L3.95089 11.6936C3.96591 11.6432 3.97793 11.592 3.98689 11.5402C3.98867 11.5145 3.98601 11.4949 3.97889 11.4816C3.9247 11.3951 3.85669 11.3181 3.77756 11.2536L3.79889 11.1909ZM29.0122 11.8682L28.9909 11.8096C29.0389 11.7711 29.0823 11.7273 29.1202 11.6789C29.1391 11.6529 29.1556 11.6252 29.1696 11.5962C29.1802 11.5738 29.1843 11.5489 29.1816 11.5242L29.1189 11.3269L28.1322 11.6842C28.1142 11.6909 28.0978 11.7013 28.0842 11.7149C28.0712 11.7307 28.0637 11.7504 28.0629 11.7709C28.0629 11.7951 28.0652 11.8192 28.0696 11.8429C28.0725 11.8705 28.0783 11.8978 28.0869 11.9242L28.0242 11.9469L27.8136 11.3642L27.8762 11.3429L27.9096 11.4149C27.9256 11.4469 27.9384 11.4682 27.9482 11.4789C27.9616 11.4949 27.9771 11.5051 27.9949 11.5096C28.0161 11.512 28.0376 11.5092 28.0576 11.5016L29.0509 11.1429L29.0082 11.0256L28.9749 10.9509C28.966 10.9331 28.9473 10.9176 28.9189 10.9042C28.8589 10.8766 28.7942 10.8603 28.7282 10.8562C28.7007 10.8537 28.6731 10.8532 28.6456 10.8549L28.6242 10.7936L28.9589 10.6722L29.3469 11.7482L29.0122 11.8682ZM13.8696 10.9349C13.4475 10.0791 12.8317 9.33355 12.0709 8.75757C12.1189 8.71091 13.1602 7.76424 14.0122 7.57491C14.8642 7.38557 15.1482 9.42024 15.3842 10.1309L14.5802 10.4616C14.6734 10.7379 14.6734 11.0372 14.5802 11.3136C14.5322 11.0776 14.4856 10.7936 14.3909 10.5562L13.8696 10.9349ZM24.8522 9.89357C24.3789 10.2722 23.9522 10.7456 23.7162 11.3136C23.4035 11.089 23.0497 10.9282 22.6749 10.8402C22.8642 10.3669 23.1949 9.42024 23.5269 9.13624C24.0002 9.27891 24.4736 9.51491 24.8522 9.84691V9.89357ZM4.86289 9.81624L4.70689 10.1349C4.46574 10.1618 4.22594 10.1996 3.98823 10.2482L3.92956 10.3696L4.30423 10.5522C4.32149 10.5616 4.34061 10.5671 4.36023 10.5682C4.37801 10.5691 4.39534 10.5616 4.41223 10.5456C4.42638 10.5315 4.4389 10.5158 4.44956 10.4989L4.48556 10.4389L4.54423 10.4669L4.30023 10.9669L4.24156 10.9376L4.26423 10.8776C4.27132 10.8586 4.27625 10.839 4.27889 10.8189C4.28057 10.8006 4.27586 10.7822 4.26556 10.7669C4.25265 10.7509 4.23622 10.7382 4.21756 10.7296L3.36423 10.3122C3.34697 10.3028 3.32784 10.2974 3.30823 10.2962C3.29045 10.2936 3.27267 10.3007 3.25489 10.3176C3.2264 10.3489 3.20095 10.3828 3.17889 10.4189L3.12023 10.3896L3.38689 9.84424C3.40952 9.79663 3.43772 9.75187 3.47089 9.71091C3.50089 9.67309 3.53748 9.64102 3.57889 9.61624C3.61707 9.59244 3.66064 9.57868 3.70556 9.57624C3.75574 9.57356 3.80566 9.58512 3.84956 9.60957C3.89076 9.6297 3.9282 9.65676 3.96023 9.68957C3.98853 9.71948 4.00952 9.75553 4.02156 9.79491C4.0334 9.83379 4.03925 9.87426 4.03889 9.91491C4.03726 9.96086 4.03326 10.0067 4.02689 10.0522L4.55489 9.95491C4.61745 9.94539 4.67685 9.92117 4.72823 9.88424C4.74417 9.87085 4.75849 9.85563 4.77089 9.83891L4.80423 9.78824L4.86289 9.81624ZM19.2189 10.3669C19.5029 9.79891 20.1189 8.18957 20.0709 7.71624C20.6389 8.04824 21.3016 8.23757 21.9642 8.33224C21.5331 9.14073 21.2602 10.0241 21.1602 10.9349C20.5442 10.6042 19.5509 10.2256 19.2669 10.3202L19.2189 10.3669ZM27.6656 10.9256L27.4216 10.4389L27.4802 10.4096C27.4995 10.445 27.5228 10.4781 27.5496 10.5082C27.5727 10.5322 27.59 10.5411 27.6016 10.5349L27.6189 10.5242L27.6362 10.5096L27.8496 10.2802L27.6429 9.86957L27.5229 9.88157L27.3656 9.90957L27.3269 9.92424C27.3047 9.93491 27.2962 9.96068 27.3016 10.0016C27.3086 10.0456 27.3211 10.0886 27.3389 10.1296L27.2802 10.1602L27.0589 9.71891L27.1176 9.68824C27.1379 9.72511 27.1667 9.75664 27.2016 9.78024C27.2487 9.80882 27.3046 9.81925 27.3589 9.80957C27.5367 9.79446 27.7345 9.77624 27.9522 9.75491L28.5376 9.69891L28.5709 9.76424L27.7562 10.6642C27.7417 10.6804 27.7291 10.6983 27.7189 10.7176C27.7105 10.7381 27.7047 10.7596 27.7016 10.7816C27.7012 10.8013 27.703 10.8209 27.7069 10.8402L27.7242 10.8962L27.6656 10.9256ZM3.76956 9.82424C3.70823 9.7913 3.63646 9.78364 3.56956 9.80291C3.50734 9.82335 3.45801 9.87091 3.42156 9.94557L3.35223 10.0869L3.85756 10.3349L3.91089 10.2256C3.92916 10.191 3.94033 10.1532 3.94377 10.1143C3.9472 10.0753 3.94283 10.0361 3.93089 9.99891C3.91768 9.96014 3.89651 9.92458 3.86872 9.89449C3.84093 9.86441 3.80715 9.84048 3.76956 9.82424ZM27.9082 10.2136L28.2736 9.80691L27.7309 9.86024L27.9082 10.2136ZM10.9829 10.0362C10.9829 10.0362 10.1776 8.85224 9.51489 8.61624C9.89356 8.33224 10.2256 7.95357 10.4616 7.57491C11.0776 7.90557 11.5509 8.37891 11.8816 8.99491C11.5029 9.27891 11.2189 9.65757 10.9829 10.0362ZM5.68423 8.55491L5.38823 9.01224L5.33356 8.97624C5.35416 8.94135 5.37071 8.90422 5.38289 8.86557C5.39178 8.83446 5.39089 8.81535 5.38023 8.80824L5.36156 8.79757L5.34156 8.79091L5.03489 8.72291L4.78556 9.10957C4.81223 9.1478 4.83623 9.1798 4.85756 9.20557L4.96156 9.32824L4.99223 9.35357C5.01356 9.36691 5.04023 9.36113 5.07223 9.33624C5.10686 9.30779 5.13777 9.27509 5.16423 9.23891L5.21889 9.27491L4.95089 9.68957L4.89489 9.65357L4.91889 9.59757C4.93543 9.55283 4.93543 9.50365 4.91889 9.45891C4.90782 9.43262 4.89396 9.40758 4.87756 9.38424C4.77534 9.23935 4.65934 9.07802 4.52956 8.90024L4.18556 8.42291L4.22556 8.36157L5.41356 8.60824C5.4563 8.61952 5.50166 8.61527 5.54156 8.59624C5.56044 8.5886 5.57731 8.57674 5.59089 8.56157L5.62956 8.51891L5.68423 8.55491ZM18.8882 9.27891C18.4196 9.18463 17.9369 9.18463 17.4682 9.27891C17.3736 8.66291 17.2789 7.38557 17.5149 6.86424C18.1333 6.77149 18.7647 6.82027 19.3616 7.00691C19.0296 7.71624 18.8402 8.47357 18.8882 9.27891ZM27.4696 9.13357C27.3935 9.18893 27.3054 9.22562 27.2126 9.24067C27.1197 9.25573 27.0246 9.24873 26.9349 9.22024C26.8537 9.19174 26.7776 9.15032 26.7096 9.09757C26.641 9.04108 26.5808 8.97508 26.5309 8.90157L26.2269 8.45091L26.2816 8.41491C26.3057 8.44968 26.3339 8.48146 26.3656 8.50957C26.3728 8.51528 26.3812 8.51941 26.3902 8.52171C26.3991 8.524 26.4084 8.52441 26.4176 8.52291C26.4371 8.51994 26.4558 8.51266 26.4722 8.50157L27.2576 7.97224C27.2736 7.96192 27.2872 7.94828 27.2976 7.93224C27.3082 7.91713 27.3113 7.89802 27.3069 7.87491C27.3037 7.85339 27.2979 7.83234 27.2896 7.81224L27.2642 7.76024L27.3189 7.72424L27.6389 8.19891C27.7257 8.3271 27.7713 8.47876 27.7696 8.63357C27.7667 8.72882 27.7401 8.82185 27.6922 8.90424C27.6361 8.9964 27.56 9.07478 27.4696 9.13357ZM27.3429 8.94557C27.4103 8.90071 27.4706 8.84586 27.5216 8.78291C27.5659 8.72687 27.5986 8.66248 27.6176 8.59357C27.6378 8.53025 27.6419 8.46289 27.6296 8.39757C27.6163 8.32755 27.5891 8.26091 27.5496 8.20157L27.4589 8.07357L26.6242 8.63757C26.5771 8.66869 26.554 8.7038 26.5549 8.74291C26.5549 8.78202 26.574 8.83002 26.6122 8.88691C26.6567 8.95091 26.7064 8.9998 26.7616 9.03357C26.8149 9.06458 26.8747 9.08284 26.9362 9.08691C27.003 9.08861 27.0695 9.07775 27.1322 9.05491C27.2068 9.02758 27.2776 8.99084 27.3429 8.94557ZM4.94823 8.70691L4.41223 8.59624L4.73356 9.03757L4.94823 8.70691ZM16.7576 8.28424C16.1793 8.24683 15.5996 8.32758 15.0536 8.52157C14.9608 7.63195 14.6342 6.78274 14.1069 6.06024C14.1536 6.01224 15.4789 5.49224 16.3322 5.63357C17.1842 5.77624 16.8056 7.57491 16.7576 8.28424ZM6.23623 7.91491C6.18625 7.97454 6.12466 8.02339 6.05521 8.05846C5.98575 8.09353 5.90989 8.1141 5.83223 8.11891C5.74856 8.12295 5.66487 8.11119 5.58556 8.08424C5.49452 8.05212 5.41005 8.00378 5.33623 7.94157C5.26023 7.8804 5.19606 7.80584 5.14689 7.72157C5.10327 7.64649 5.07474 7.5636 5.06289 7.47757C5.0499 7.39643 5.05583 7.31338 5.08023 7.23491C5.10898 7.13961 5.16001 7.05254 5.22911 6.98089C5.2982 6.90925 5.38337 6.85509 5.47756 6.82291L5.45356 6.75357L5.50023 6.69624L5.86556 6.98957L5.81756 7.04691C5.77121 7.02416 5.72357 7.00413 5.67489 6.98691C5.62698 6.96868 5.57668 6.95745 5.52556 6.95357C5.47735 6.95069 5.42901 6.95656 5.38289 6.97091C5.33713 6.98818 5.297 7.0177 5.26689 7.05624C5.22949 7.10194 5.20346 7.15586 5.19094 7.21358C5.17843 7.27129 5.17978 7.33115 5.19489 7.38824C5.21601 7.45498 5.24751 7.51797 5.28823 7.57491C5.33534 7.6398 5.39489 7.70246 5.46689 7.76291C5.53178 7.81624 5.59801 7.85757 5.66556 7.88691C5.72934 7.91316 5.79681 7.92935 5.86556 7.93491C5.92879 7.93996 5.99232 7.92991 6.05089 7.90557C6.10867 7.88092 6.15983 7.84301 6.20023 7.79491C6.24223 7.74485 6.27087 7.68497 6.28346 7.62085C6.29605 7.55673 6.29219 7.49046 6.27223 7.42824C6.26043 7.38776 6.24387 7.34882 6.22289 7.31224L6.29223 7.28024C6.35889 7.40469 6.38556 7.51802 6.37223 7.62024C6.35622 7.72951 6.30899 7.83183 6.23623 7.91491ZM26.9722 7.36157C26.9531 7.34262 26.9321 7.32564 26.9096 7.31091C26.8869 7.29559 26.8628 7.28264 26.8376 7.27224C26.8109 7.26513 26.7784 7.27357 26.7402 7.29757C26.6942 7.32814 26.6501 7.36154 26.6082 7.39757L25.8856 8.03091L25.8322 7.96957L26.1162 6.66424L25.6069 7.11091C25.562 7.14814 25.5213 7.19017 25.4856 7.23624C25.4607 7.27002 25.4482 7.30024 25.4482 7.32691C25.4482 7.34646 25.458 7.37669 25.4776 7.41757L25.5216 7.49624L25.4722 7.53891L25.1176 7.13491L25.1669 7.09091C25.2087 7.12734 25.2559 7.15703 25.3069 7.17891C25.3379 7.18339 25.3696 7.17678 25.3962 7.16024C25.4467 7.12667 25.4948 7.08969 25.5402 7.04957L26.0269 6.62424C26.0481 6.60503 26.0661 6.58252 26.0802 6.55757C26.0953 6.53603 26.1036 6.51052 26.1042 6.48424C26.0994 6.41731 26.0779 6.35266 26.0416 6.29624L26.0909 6.25357L26.3376 6.53624L26.0709 7.74957L26.5402 7.33891C26.5857 7.30092 26.6269 7.25799 26.6629 7.21091C26.6869 7.17624 26.698 7.1478 26.6962 7.12557C26.6915 7.09521 26.6816 7.06589 26.6669 7.03891L26.6216 6.96024L26.6709 6.91624L27.0216 7.31757L26.9722 7.36157ZM6.88689 5.78957L6.84156 5.83357C6.75766 5.78975 6.66539 5.7643 6.57089 5.75891C6.53978 5.75891 6.51623 5.76468 6.50023 5.77624L6.34556 5.91624L7.08289 6.67624C7.09688 6.68996 7.11373 6.70044 7.13223 6.70691C7.15181 6.71384 7.17333 6.71289 7.19223 6.70424C7.23904 6.68059 7.2829 6.6515 7.32289 6.61757L7.36956 6.66557L6.92156 7.10157L6.87489 7.05357C6.90926 7.01459 6.94131 6.97363 6.97089 6.93091C6.98029 6.91384 6.98314 6.89393 6.97889 6.87491C6.97277 6.85438 6.9618 6.83563 6.94689 6.82024L6.20289 6.05491L6.11356 6.14424L6.05889 6.20557C6.04556 6.22157 6.03889 6.24513 6.03889 6.27624C6.03757 6.30889 6.04026 6.34158 6.04689 6.37357C6.05869 6.4343 6.07889 6.49308 6.10689 6.54824L6.06023 6.59357L5.80956 6.33624L6.63623 5.53091L6.88689 5.78957ZM25.7162 5.99891C25.6733 5.96476 25.6239 5.9398 25.5709 5.92557C25.5451 5.92291 25.5149 5.93535 25.4802 5.96291C25.4388 5.99868 25.3996 6.03698 25.3629 6.07757L24.9869 6.50557C24.9466 6.55419 24.8947 6.5918 24.8359 6.61489C24.7771 6.63797 24.7135 6.64578 24.6509 6.63757C24.5945 6.63035 24.5395 6.61415 24.4882 6.58957C24.406 6.54959 24.3337 6.49172 24.2768 6.4202C24.2198 6.34868 24.1795 6.26533 24.1589 6.17624C24.1504 6.12677 24.1532 6.07601 24.167 6.02775C24.1809 5.9795 24.2054 5.935 24.2389 5.89757L24.7509 5.31491C24.7633 5.30144 24.7729 5.28556 24.7789 5.26824C24.7811 5.24843 24.7788 5.22839 24.7722 5.20957C24.7549 5.17252 24.7319 5.13834 24.7042 5.10824L24.7469 5.05891L25.1576 5.42024L25.1136 5.46957C25.0807 5.44369 25.0449 5.42176 25.0069 5.40424C24.9981 5.40018 24.9886 5.39808 24.9789 5.39808C24.9692 5.39808 24.9597 5.40018 24.9509 5.40424C24.9333 5.41278 24.9179 5.42507 24.9056 5.44024L24.4282 5.98291C24.4028 6.01001 24.3812 6.04052 24.3642 6.07357C24.3429 6.10898 24.3302 6.14886 24.3269 6.19004C24.3237 6.23123 24.3301 6.2726 24.3456 6.31091C24.3706 6.36395 24.407 6.41084 24.4522 6.44824C24.495 6.48814 24.5459 6.51817 24.6016 6.53624C24.6459 6.55087 24.6932 6.55363 24.7389 6.54424C24.7781 6.53831 24.8154 6.52374 24.8482 6.50157C24.8794 6.48158 24.9077 6.45735 24.9322 6.42957L25.2869 6.02557C25.3249 5.98431 25.3584 5.93918 25.3869 5.89091C25.4082 5.85091 25.4162 5.8198 25.4109 5.79757C25.4019 5.7668 25.3875 5.73789 25.3682 5.71224L25.3136 5.64424L25.3576 5.59491L25.7589 5.94957L25.7162 5.99891ZM8.27489 5.91491L7.81623 6.28024L7.77489 6.22824L7.82823 6.18024C7.84544 6.16536 7.86067 6.14833 7.87356 6.12957C7.88148 6.11332 7.88602 6.09563 7.88689 6.07757C7.88273 6.05766 7.87407 6.03896 7.86156 6.02291L7.27489 5.28424C7.26376 5.26951 7.24968 5.25725 7.23356 5.24824C7.21845 5.24113 7.19845 5.24157 7.17356 5.24957C7.12842 5.26381 7.08538 5.28398 7.04556 5.30957L7.00423 5.25891L7.46423 4.89357L7.50423 4.94424C7.49 4.95668 7.474 4.97268 7.45623 4.99224L7.41089 5.04691C7.39932 5.06363 7.39456 5.08413 7.39756 5.10424C7.40188 5.12264 7.41006 5.13991 7.42156 5.15491L8.00956 5.89357C8.022 5.90957 8.03667 5.92069 8.05356 5.92691C8.07246 5.93365 8.09304 5.93412 8.11223 5.92824C8.15579 5.91191 8.19703 5.88994 8.23489 5.86291L8.27489 5.91491ZM24.0856 4.74957C24.0992 4.83514 24.096 4.92255 24.0762 5.00691C24.0533 5.10083 24.0136 5.18983 23.9589 5.26957C23.9054 5.35046 23.8376 5.42094 23.7589 5.47757C23.6183 5.57172 23.4472 5.6089 23.2802 5.58157C23.1989 5.56408 23.1216 5.53152 23.0522 5.48557C22.9817 5.43881 22.9215 5.37795 22.8756 5.30681C22.8297 5.23568 22.7991 5.15581 22.7856 5.07224C22.7738 4.98772 22.7783 4.90172 22.7989 4.81891C22.8447 4.63184 22.9564 4.46756 23.1136 4.35624C23.1848 4.30701 23.265 4.27214 23.3496 4.25357C23.4306 4.23638 23.5142 4.23566 23.5955 4.25146C23.6768 4.26726 23.7541 4.29924 23.8227 4.34552C23.8914 4.3918 23.9501 4.45142 23.9952 4.52084C24.0404 4.59025 24.0711 4.66804 24.0856 4.74957ZM23.4522 5.44424C23.5139 5.41443 23.5705 5.3753 23.6202 5.32824C23.6781 5.27286 23.7295 5.21114 23.7736 5.14424C23.8207 5.07568 23.8596 5.00185 23.8896 4.92424C23.9147 4.85939 23.9296 4.79101 23.9336 4.72157C23.9365 4.66083 23.9233 4.60039 23.8955 4.54633C23.8676 4.49227 23.826 4.44648 23.7749 4.41357C23.7211 4.37487 23.6571 4.35305 23.5909 4.35091C23.528 4.35025 23.4659 4.36441 23.4096 4.39224C23.3491 4.42362 23.2938 4.46409 23.2456 4.51224C23.1337 4.62357 23.0449 4.75587 22.9842 4.90157C22.9592 4.966 22.9444 5.03392 22.9402 5.10291C22.9381 5.16289 22.9495 5.22259 22.9736 5.27757C23.0017 5.33489 23.045 5.38334 23.0989 5.41757C23.1501 5.45325 23.21 5.47444 23.2722 5.47891C23.3341 5.48144 23.3957 5.46957 23.4522 5.44424ZM8.86023 4.13224C8.94289 4.1518 9.02067 4.18868 9.09356 4.24291C9.16734 4.29624 9.23223 4.36691 9.28823 4.45491C9.3413 4.53585 9.37925 4.62575 9.40023 4.72024C9.41738 4.80512 9.41783 4.89252 9.40156 4.97757C9.38504 5.05825 9.35244 5.13477 9.30571 5.20258C9.25898 5.27038 9.19907 5.32809 9.12956 5.37224C9.05866 5.41857 8.97894 5.44972 8.89541 5.46372C8.81188 5.47771 8.72636 5.47426 8.64423 5.45357C8.56175 5.4312 8.48435 5.39318 8.41623 5.34157C8.34216 5.28504 8.27854 5.216 8.22823 5.13757C8.175 5.05623 8.13705 4.96586 8.11623 4.87091C8.09863 4.78612 8.09773 4.69871 8.11356 4.61357C8.13096 4.53327 8.16306 4.45688 8.20823 4.38824C8.30486 4.24944 8.4525 4.15452 8.61889 4.12424C8.69915 4.11219 8.78094 4.11491 8.86023 4.13224ZM9.24823 4.98957C9.2458 4.92087 9.23275 4.85296 9.20956 4.78824C9.14975 4.63602 9.05946 4.49763 8.94423 4.38157C8.89439 4.33298 8.83726 4.29249 8.77489 4.26157C8.72028 4.23496 8.65963 4.22317 8.59902 4.22739C8.53841 4.2316 8.47997 4.25166 8.42956 4.28557C8.37246 4.31987 8.32695 4.3705 8.29889 4.43091C8.27361 4.48834 8.26219 4.55091 8.26556 4.61357C8.27054 4.68128 8.28582 4.74782 8.31089 4.81091C8.36768 4.95892 8.4549 5.09337 8.56689 5.20557C8.61601 5.25347 8.67223 5.2935 8.73356 5.32424C8.78878 5.3525 8.85056 5.36543 8.91248 5.36168C8.97439 5.35792 9.03416 5.33763 9.08556 5.30291C9.1373 5.26905 9.17945 5.22243 9.20794 5.16755C9.23643 5.11267 9.25031 5.05137 9.24823 4.98957ZM10.6602 3.08824C10.6126 3.11464 10.5709 3.15048 10.5376 3.19357C10.5233 3.21757 10.5224 3.25091 10.5349 3.29357C10.5517 3.34632 10.5717 3.39798 10.5949 3.44824L11.0056 4.31757L10.9322 4.35091L9.75489 3.72024L10.0442 4.33224C10.0762 4.40157 10.1056 4.45224 10.1322 4.48424C10.158 4.51802 10.1838 4.53802 10.2096 4.54424C10.241 4.54901 10.2731 4.5481 10.3042 4.54157L10.3922 4.52024L10.4202 4.58024L9.93356 4.80957L9.90556 4.74957C9.93002 4.73472 9.95282 4.71729 9.97356 4.69757C9.99454 4.68129 10.013 4.66197 10.0282 4.64024C10.041 4.61173 10.0434 4.57964 10.0349 4.54957C10.0166 4.49168 9.99428 4.4351 9.96823 4.38024L9.69089 3.79624C9.67839 3.77017 9.66173 3.7463 9.64156 3.72557C9.62488 3.70537 9.60262 3.69053 9.57756 3.68291C9.54376 3.67342 9.50842 3.6707 9.47356 3.67491C9.44166 3.67506 9.41005 3.68093 9.38023 3.69224L9.35223 3.63357L9.69089 3.47224L10.7856 4.06157L10.5189 3.49757C10.4953 3.44337 10.4658 3.39194 10.4309 3.34424C10.4042 3.31224 10.3798 3.29402 10.3576 3.28957C10.3268 3.286 10.2957 3.2878 10.2656 3.29491C10.2355 3.29866 10.206 3.30582 10.1776 3.31624L10.1496 3.25624L10.6309 3.02824L10.6602 3.08824ZM22.6949 4.08291L22.6336 4.05224C22.6435 3.99354 22.6435 3.9336 22.6336 3.87491C22.622 3.80646 22.6007 3.76113 22.5696 3.73891L22.4336 3.66024L22.2376 3.55891L21.9949 4.02957L22.1296 4.09891C22.1616 4.11541 22.1956 4.12752 22.2309 4.13491C22.2575 4.13791 22.2844 4.13472 22.3096 4.12557C22.3325 4.11742 22.3528 4.10312 22.3682 4.08424C22.391 4.06267 22.4111 4.03851 22.4282 4.01224L22.4909 4.04291L22.2536 4.50291L22.1909 4.47091C22.2033 4.44184 22.2123 4.41141 22.2176 4.38024C22.2227 4.35299 22.2236 4.3251 22.2202 4.29757C22.2151 4.26948 22.2011 4.24377 22.1802 4.22424C22.1544 4.20107 22.1258 4.18135 22.0949 4.16557L21.9602 4.09624L21.7522 4.49891C21.7441 4.51557 21.7396 4.53373 21.7389 4.55224C21.7396 4.57213 21.7466 4.59128 21.7589 4.60691C21.7887 4.64007 21.8239 4.66801 21.8629 4.68957L21.8322 4.74824L21.3256 4.48691L21.3562 4.42824C21.3976 4.44592 21.4399 4.4615 21.4829 4.47491C21.5012 4.47658 21.5196 4.47187 21.5349 4.46157C21.5506 4.44943 21.5633 4.43394 21.5722 4.41624L22.0082 3.57357C22.0173 3.55712 22.0227 3.53895 22.0242 3.52024C22.026 3.50246 22.0193 3.48468 22.0042 3.46691C21.9732 3.43222 21.9378 3.40174 21.8989 3.37624L21.9296 3.31757L22.8456 3.79091L22.6949 4.08291ZM20.7669 2.87357C20.7405 2.86845 20.7138 2.86533 20.6869 2.86424C20.6597 2.86184 20.6322 2.86364 20.6056 2.86957C20.5789 2.87757 20.5558 2.90157 20.5362 2.94157C20.513 2.99227 20.4929 3.04437 20.4762 3.09757L20.1962 4.01624L20.1189 3.99224L19.6722 2.73357L19.4749 3.38024C19.4562 3.43603 19.4436 3.49371 19.4376 3.55224C19.4336 3.58511 19.4392 3.61843 19.4536 3.64824C19.4741 3.67294 19.499 3.69371 19.5269 3.70957L19.6056 3.75357L19.5856 3.81624L19.0709 3.65891L19.0909 3.59624L19.1762 3.60291C19.218 3.60468 19.2447 3.60246 19.2562 3.59624C19.2844 3.58395 19.3075 3.56228 19.3216 3.53491C19.3468 3.47954 19.3681 3.42252 19.3856 3.36424L19.5749 2.74557C19.583 2.71789 19.5866 2.68907 19.5856 2.66024C19.585 2.63427 19.5786 2.60875 19.5669 2.58557C19.5485 2.55586 19.5245 2.53003 19.4962 2.50957C19.4723 2.48839 19.4447 2.47168 19.4149 2.46024L19.4336 2.39757L19.7922 2.50691L20.2056 3.67891L20.3869 3.08291C20.407 3.02705 20.4196 2.96876 20.4242 2.90957C20.4269 2.8678 20.4216 2.83757 20.4082 2.81891C20.3642 2.77677 20.3132 2.74249 20.2576 2.71757L20.2762 2.65491L20.7869 2.81091L20.7669 2.87357ZM13.2242 2.93491C13.2514 3.0253 13.2569 3.12082 13.2402 3.21373C13.2235 3.30663 13.1852 3.39429 13.1282 3.46957C13.0738 3.53643 13.009 3.59407 12.9362 3.64024C12.8598 3.686 12.7772 3.72057 12.6909 3.74291L12.1642 3.87891L12.1482 3.81491C12.166 3.81046 12.1878 3.80335 12.2136 3.79357C12.2323 3.78671 12.2502 3.77776 12.2669 3.76691C12.2814 3.75599 12.2917 3.74047 12.2962 3.72291C12.3001 3.7035 12.2997 3.68345 12.2949 3.66424L12.0576 2.74691C12.0534 2.72804 12.0452 2.7103 12.0336 2.69491C12.021 2.67908 12.0029 2.6686 11.9829 2.66557C11.9614 2.66156 11.9394 2.66022 11.9176 2.66157L11.8602 2.66824L11.8429 2.60424L12.3989 2.46157C12.5487 2.4219 12.7071 2.42982 12.8522 2.48424C12.9425 2.51714 13.0222 2.5738 13.0829 2.64824C13.1526 2.73092 13.2011 2.82931 13.2242 2.93491ZM13.0042 2.99091C12.9846 2.91239 12.9531 2.83731 12.9109 2.76824C12.8729 2.70734 12.823 2.65474 12.7642 2.61357C12.7074 2.5751 12.6431 2.54924 12.5755 2.53774C12.5078 2.52624 12.4385 2.52937 12.3722 2.54691L12.2216 2.58957L12.4736 3.56691C12.4869 3.62113 12.5122 3.65491 12.5496 3.66824C12.6006 3.68136 12.6545 3.67904 12.7042 3.66157C12.7724 3.64363 12.8363 3.61236 12.8922 3.56957C12.9397 3.52941 12.9771 3.47873 13.0016 3.42157C13.0256 3.3595 13.0378 3.29347 13.0376 3.22691C13.0366 3.14714 13.0254 3.06783 13.0042 2.99091ZM18.8562 3.07357L18.7962 3.07224C18.7751 3.07198 18.7541 3.07422 18.7336 3.07891C18.7151 3.08382 18.699 3.09517 18.6882 3.11091C18.6768 3.12811 18.6695 3.14773 18.6669 3.16824L18.6256 3.41757L18.6176 3.48157C18.5296 3.5038 18.4438 3.51802 18.3602 3.52424C18.2791 3.5295 18.1977 3.52547 18.1176 3.51224C17.9527 3.48428 17.8052 3.39286 17.7069 3.25757C17.6583 3.18662 17.6239 3.10693 17.6056 3.02291C17.5681 2.83298 17.6008 2.63591 17.6976 2.46824C17.7637 2.35272 17.8643 2.26071 17.9852 2.20502C18.1061 2.14934 18.2414 2.13275 18.3722 2.15757C18.4911 2.17453 18.6023 2.22598 18.6922 2.30557L18.7402 2.24957L18.8136 2.26157L18.7442 2.71757L18.6696 2.70424C18.6651 2.65184 18.6575 2.59975 18.6469 2.54824C18.6369 2.49852 18.6198 2.45048 18.5962 2.40557C18.5727 2.3594 18.5384 2.31963 18.4961 2.28967C18.4538 2.25971 18.4049 2.24046 18.3536 2.23357C18.2931 2.2223 18.2308 2.22614 18.1722 2.24475C18.1136 2.26336 18.0604 2.29616 18.0176 2.34024C17.9668 2.38997 17.9264 2.44936 17.8989 2.51491C17.8295 2.66721 17.8006 2.83483 17.8149 3.00157C17.8193 3.07254 17.8379 3.1419 17.8696 3.20557C17.8968 3.26697 17.939 3.32053 17.9924 3.36131C18.0457 3.40209 18.1085 3.42877 18.1749 3.43891C18.2614 3.45527 18.3509 3.44262 18.4296 3.40291L18.4536 3.30824L18.4802 3.15357C18.4837 3.13062 18.4841 3.10731 18.4816 3.08424C18.4792 3.07382 18.4749 3.06397 18.4687 3.05527C18.4625 3.04657 18.4546 3.03919 18.4456 3.03357C18.3948 3.00892 18.3417 2.98971 18.2869 2.97624L18.2989 2.90957L18.8682 3.00691L18.8562 3.07357ZM14.8122 2.96691L14.8376 3.35224L13.7602 3.49357L13.7522 3.42824C13.77 3.42557 13.794 3.4198 13.8242 3.41091C13.844 3.40645 13.8633 3.39973 13.8816 3.39091C13.8981 3.3818 13.9108 3.36716 13.9176 3.34957C13.923 3.33098 13.9244 3.31142 13.9216 3.29224L13.7989 2.36024C13.7968 2.34189 13.7909 2.32419 13.7816 2.30824C13.7727 2.29402 13.7571 2.28335 13.7349 2.27624C13.6903 2.26343 13.6438 2.25846 13.5976 2.26157L13.5896 2.19624L14.5936 2.06424L14.6349 2.37624L14.5656 2.38557C14.5432 2.33341 14.51 2.2866 14.4682 2.24824C14.4202 2.20202 14.3776 2.17846 14.3402 2.17757L14.1829 2.19224L13.9789 2.21891L14.0469 2.73357L14.1922 2.71491C14.2274 2.71281 14.2619 2.70374 14.2936 2.68824C14.3154 2.67612 14.3334 2.65811 14.3456 2.63624C14.3573 2.61225 14.3654 2.58663 14.3696 2.56024C14.3768 2.53241 14.3795 2.5036 14.3776 2.47491L14.4469 2.46557L14.5136 2.97357L14.4442 2.98291C14.4372 2.95151 14.4265 2.92107 14.4122 2.89224C14.4013 2.86849 14.3869 2.84647 14.3696 2.82691C14.3509 2.80728 14.3267 2.79379 14.3002 2.78824C14.2679 2.78472 14.2352 2.78517 14.2029 2.78957L14.0562 2.80957L14.1069 3.19757C14.1103 3.22898 14.1175 3.25986 14.1282 3.28957C14.1345 3.3096 14.1484 3.32636 14.1669 3.33624C14.1847 3.34513 14.2073 3.34957 14.2349 3.34957L14.4322 3.32824L14.5149 3.31491L14.5842 3.29224C14.603 3.28499 14.6198 3.27359 14.6336 3.25891C14.6644 3.21433 14.6882 3.16533 14.7042 3.11357C14.7205 3.06813 14.7343 3.02184 14.7456 2.97491L14.8122 2.96691ZM17.1589 3.36824L16.5696 3.33091L16.5736 3.26557L16.6469 3.26424C16.6693 3.26483 16.6917 3.26259 16.7136 3.25757C16.7311 3.25076 16.747 3.24031 16.7602 3.22691C16.7701 3.20976 16.776 3.19063 16.7776 3.17091L16.8389 2.22291C16.8405 2.20442 16.8382 2.1858 16.8322 2.16824C16.826 2.15313 16.8109 2.1398 16.7869 2.12824C16.7432 2.10966 16.6976 2.0958 16.6509 2.08691L16.6549 2.02157L17.2442 2.06024L17.2402 2.12557C17.2171 2.12445 17.1939 2.12534 17.1709 2.12824C17.1475 2.12976 17.1243 2.13333 17.1016 2.13891C17.0776 2.14424 17.0611 2.15491 17.0522 2.17091C17.043 2.18776 17.0376 2.20641 17.0362 2.22557L16.9749 3.17357C16.9741 3.19225 16.9773 3.21087 16.9842 3.22824C16.9941 3.24601 17.0096 3.26006 17.0282 3.26824C17.0407 3.27446 17.0611 3.28113 17.0896 3.28824C17.1189 3.29713 17.1438 3.30202 17.1642 3.30291L17.1589 3.36824ZM16.0389 2.70824C16.0651 2.7382 16.0867 2.77191 16.1029 2.80824C16.1169 2.84946 16.1241 2.8927 16.1242 2.93624C16.127 2.9906 16.1174 3.04488 16.0961 3.095C16.0749 3.14511 16.0426 3.18976 16.0016 3.22557C15.9147 3.30317 15.802 3.3455 15.6856 3.34424C15.626 3.34613 15.5665 3.33802 15.5096 3.32024C15.456 3.30581 15.4045 3.28476 15.3562 3.25757L15.3176 3.32557L15.2442 3.32691L15.2216 2.87891L15.2962 2.87757C15.3124 2.928 15.3315 2.97742 15.3536 3.02557C15.3756 3.07065 15.4039 3.1124 15.4376 3.14957C15.4704 3.18467 15.5092 3.21358 15.5522 3.23491C15.6348 3.27201 15.7286 3.27536 15.8136 3.24424C15.8414 3.23266 15.8671 3.21643 15.8896 3.19624C15.9076 3.17423 15.922 3.14947 15.9322 3.12291C15.9419 3.09233 15.946 3.06026 15.9442 3.02824C15.9432 2.97628 15.9269 2.92577 15.8976 2.88291C15.8648 2.83546 15.8176 2.79991 15.7629 2.78157L15.6242 2.73224L15.4882 2.67891C15.4195 2.65348 15.3591 2.60966 15.3136 2.55224C15.2697 2.49137 15.2468 2.41792 15.2482 2.34291C15.2467 2.29428 15.2563 2.24594 15.2762 2.20157C15.2969 2.15769 15.3253 2.11794 15.3602 2.08424C15.4201 2.03356 15.4922 1.99929 15.5693 1.9848C15.6464 1.97031 15.726 1.97609 15.8002 2.00157C15.8453 2.0196 15.8894 2.04007 15.9322 2.06291L15.9696 2.00024L16.0429 1.99757L16.0589 2.43357L15.9842 2.43491L15.9362 2.29224C15.9186 2.24847 15.8953 2.20722 15.8669 2.16957C15.8412 2.13437 15.8074 2.10599 15.7682 2.08691C15.7247 2.06432 15.6758 2.05417 15.6269 2.05757C15.5718 2.0573 15.5188 2.07832 15.4789 2.11624C15.4589 2.13347 15.4431 2.15503 15.4327 2.1793C15.4223 2.20356 15.4176 2.22988 15.4189 2.25624C15.4198 2.30597 15.4346 2.35447 15.4616 2.39624C15.4891 2.43268 15.5282 2.46246 15.5789 2.48557L15.8402 2.58691C15.877 2.60261 15.913 2.61996 15.9482 2.63891C15.9816 2.65757 16.0121 2.68091 16.0389 2.70824Z" fill="white"/>
</g>
<defs>
<clipPath id="clip0_345_160">
<rect width="32" height="32" fill="white"/>
</clipPath>
</defs>
</svg>
