<svg width="20" height="20" viewBox="0 0 20 20" fill="none" xmlns="http://www.w3.org/2000/svg">
<g clip-path="url(#clip0_256_799)">
<path d="M8.61721 6.775C9.76138 6.775 7.64888 12.6717 7.91305 15.2233C8.17721 17.775 10.993 17.0717 10.8172 15.5758C10.4647 13.0233 12.2255 5.01583 13.8972 5.01583C15.1289 5.01583 12.4889 10.4717 13.0172 13.9033C13.3689 16.1033 16.3605 15.4875 16.0089 13.9917C15.0405 9.50333 18.2089 5.19167 17.7689 2.02417C17.593 0.704167 16.8005 0 16.0089 0C13.193 0 10.9047 5.80833 10.9047 5.80833C10.9047 5.80833 11.2572 2.55167 8.88138 2.37583C5.53721 2.2 2.10554 10.6475 2.19304 18.3033C2.28138 20.7675 5.27304 20.3275 5.09721 18.3917C4.92138 14.9583 6.85721 6.775 8.61805 6.775H8.61721Z" fill="white"/>
</g>
<defs>
<clipPath id="clip0_256_799">
<rect width="20" height="20" fill="white"/>
</clipPath>
</defs>
</svg>
