<svg width="27" height="24" viewBox="0 0 27 24" fill="none" xmlns="http://www.w3.org/2000/svg">
<g clip-path="url(#clip0_447_516)">
<path d="M26.3052 11.9981H20.3452C20.0696 11.9962 19.8059 11.885 19.6122 11.6889C19.4185 11.4927 19.3106 11.2277 19.3122 10.9521V0.43807C19.3122 0.322236 19.2666 0.211072 19.1851 0.128698C19.1037 0.0463241 18.9931 -0.000613391 18.8772 -0.00192969H16.0322C15.9164 -0.000613391 15.8058 0.0463241 15.7243 0.128698C15.6429 0.211072 15.5972 0.322236 15.5972 0.43807V10.9521C15.5988 11.2277 15.4909 11.4927 15.2972 11.6889C15.1035 11.885 14.8399 11.9962 14.5642 11.9981H12.9162C12.6406 11.9962 12.3769 11.885 12.1832 11.6889C11.9895 11.4927 11.8816 11.2277 11.8832 10.9521V0.43807C11.8832 0.322236 11.8376 0.211072 11.7561 0.128698C11.6747 0.0463241 11.5641 -0.000613391 11.4482 -0.00192969H8.60423C8.48841 -0.000613391 8.37777 0.0463241 8.29633 0.128698C8.2149 0.211072 8.16923 0.322236 8.16923 0.43807V10.9521C8.17083 11.2277 8.06292 11.4927 7.86923 11.6889C7.67553 11.885 7.41189 11.9962 7.13623 11.9981H1.17623C1.06023 11.9991 0.949343 12.0459 0.86769 12.1283C0.786037 12.2108 0.74023 12.3221 0.740234 12.4381V23.5581C0.740234 23.8011 0.935234 23.9981 1.17523 23.9981H7.73423C7.97423 23.9981 8.16923 23.8011 8.16923 23.5581V13.0441C8.16764 12.7684 8.27554 12.5034 8.46924 12.3073C8.66294 12.1111 8.92658 11.9999 9.20223 11.9981H10.8502C11.4202 11.9981 11.8832 12.4661 11.8832 13.0441V23.5581C11.8832 23.8011 12.0782 23.9981 12.3182 23.9981H15.1632C15.4032 23.9981 15.5972 23.8011 15.5972 23.5581V13.0441C15.5956 12.7684 15.7035 12.5034 15.8972 12.3073C16.0909 12.1111 16.3546 11.9999 16.6302 11.9981H18.2792C18.8492 11.9981 19.3122 12.4661 19.3122 13.0441V23.5581C19.3122 23.8011 19.5062 23.9981 19.7462 23.9981H26.3062C26.5462 23.9981 26.7402 23.8011 26.7402 23.5581V12.4381C26.7402 12.3222 26.6946 12.2111 26.6131 12.1287C26.5317 12.0463 26.4211 11.9994 26.3052 11.9981ZM57.1862 0.43307V23.2601C57.1862 23.5001 56.9902 23.6941 56.7492 23.6941H53.8912C53.7758 23.6943 53.6649 23.6488 53.583 23.5674C53.5011 23.4861 53.4548 23.3755 53.4542 23.2601V5.77007C53.4542 5.56807 53.3192 5.43307 53.1492 5.43307C52.9792 5.43307 52.8782 5.53307 52.8092 5.73607L46.8392 23.3981C46.8093 23.4844 46.7533 23.5592 46.679 23.6123C46.6046 23.6653 46.5156 23.6939 46.4242 23.6941H43.1162C43.0254 23.6936 42.9369 23.6649 42.8629 23.6121C42.789 23.5593 42.7332 23.4849 42.7032 23.3991L36.6972 5.73607C36.6292 5.53407 36.5272 5.43307 36.3572 5.43307C36.1882 5.43307 36.0532 5.56807 36.0532 5.77007V23.2601C36.0532 23.5001 35.8572 23.6941 35.6162 23.6941H32.7582C32.6428 23.6943 32.5319 23.6488 32.45 23.5674C32.3681 23.4861 32.3218 23.3755 32.3212 23.2601V0.43207C32.3212 0.19207 32.5172 -0.00292969 32.7582 -0.00292969H37.9112C38.0982 -0.00292969 38.2642 0.11507 38.3242 0.29207L44.4992 18.3271C44.5672 18.5301 44.6692 18.6311 44.8392 18.6311C45.0082 18.6311 45.1092 18.5301 45.1772 18.3271L51.3532 0.29307C51.3832 0.207107 51.4392 0.132569 51.5133 0.0797331C51.5875 0.0268968 51.6762 -0.00163538 51.7672 -0.00192969H56.7502C56.9912 -0.00192969 57.1862 0.19307 57.1862 0.43307ZM74.4222 12.2851V23.2591C74.4222 23.4991 74.2272 23.6941 73.9852 23.6941H71.3652C71.2498 23.6943 71.1389 23.6488 71.057 23.5674C70.9751 23.4861 70.9288 23.3755 70.9282 23.2601V21.8701C70.9282 21.6341 70.7932 21.5001 70.6572 21.5001C70.4872 21.5001 70.4202 21.5671 70.2162 21.8031C68.9612 23.2211 67.2652 23.9971 65.1622 23.9971C61.9732 23.9971 59.6322 22.2421 59.6322 19.0691C59.6322 15.7611 62.0752 14.2421 66.0442 13.5331L68.1472 13.1621C70.0122 12.8241 70.7252 12.4521 70.7252 11.4741C70.7252 9.85407 69.4702 8.90807 67.3672 8.90807C65.5072 8.90807 64.1152 9.66707 63.9012 11.2641C63.8874 11.3691 63.8358 11.4654 63.7561 11.5351C63.6765 11.6049 63.5741 11.6433 63.4682 11.6431H60.6792C60.6178 11.6426 60.5571 11.6292 60.5011 11.6039C60.4452 11.5785 60.3951 11.5417 60.3542 11.4958C60.3133 11.4499 60.2825 11.396 60.2637 11.3375C60.245 11.279 60.2387 11.2172 60.2452 11.1561C60.6102 7.83207 63.4172 6.14107 67.3672 6.14107C71.6072 6.14107 74.4222 7.99807 74.4222 12.2851ZM70.8272 15.6621C70.8274 15.5914 70.8103 15.5218 70.7775 15.4592C70.7447 15.3966 70.6972 15.3429 70.639 15.3029C70.5808 15.2628 70.5137 15.2375 70.4435 15.2292C70.3733 15.2208 70.3022 15.2297 70.2362 15.2551C69.7852 15.4321 69.1752 15.5621 68.4522 15.6931L66.7902 15.9971C64.2802 16.4701 63.3642 17.3811 63.3642 18.9001C63.3642 20.2841 64.3142 21.2291 66.0442 21.2291C68.5202 21.2291 70.8272 19.6091 70.8272 16.6721V15.6621ZM89.9682 6.48007H77.3412C77.284 6.47994 77.2273 6.49109 77.1743 6.51288C77.1214 6.53467 77.0732 6.56667 77.0326 6.60706C76.9921 6.64746 76.9598 6.69545 76.9378 6.7483C76.9158 6.80114 76.9044 6.85781 76.9042 6.91507V9.11707C76.9042 9.35707 77.1002 9.55207 77.3412 9.55207H84.7742C85.0112 9.55207 85.1132 9.68707 85.1132 9.85607C85.1132 9.95607 85.0452 10.0581 84.9772 10.1591L76.7412 21.0321C76.6272 21.183 76.5654 21.3669 76.5652 21.5561V23.2601C76.5652 23.5001 76.7602 23.6951 77.0022 23.6951H89.9682C90.0837 23.6953 90.1945 23.6498 90.2765 23.5684C90.3584 23.4871 90.4047 23.3765 90.4052 23.2611V21.0901C90.4051 21.0328 90.3937 20.9761 90.3717 20.9233C90.3496 20.8704 90.3174 20.8225 90.2768 20.7821C90.2363 20.7417 90.1881 20.7097 90.1352 20.6879C90.0822 20.6661 90.0255 20.6549 89.9682 20.6551H82.0942C81.8572 20.6551 81.7542 20.5201 81.7542 20.3521C81.7542 20.2501 81.8232 20.1491 81.8902 20.0481L90.2292 9.04007C90.3433 8.88918 90.4051 8.70523 90.4052 8.51607V6.91407C90.4051 6.85681 90.3937 6.80014 90.3717 6.7473C90.3496 6.69445 90.3174 6.64646 90.2768 6.60606C90.2363 6.56567 90.1881 6.53367 90.1352 6.51188C90.0822 6.49009 90.0255 6.47994 89.9682 6.48007ZM107.321 14.6821C107.321 15.0051 107.321 15.3131 107.31 15.6161C107.306 15.7284 107.258 15.8345 107.176 15.9121C107.095 15.9897 106.987 16.0327 106.874 16.0321H95.9412C95.8816 16.0315 95.8226 16.0433 95.7677 16.0666C95.7129 16.0899 95.6634 16.1242 95.6224 16.1675C95.5814 16.2107 95.5498 16.262 95.5294 16.318C95.5091 16.374 95.5005 16.4336 95.5042 16.4931C95.6972 19.1641 97.0242 21.1291 99.6892 21.1291C101.746 21.1291 102.915 20.1311 103.249 18.9741C103.276 18.8842 103.331 18.8054 103.407 18.7495C103.482 18.6936 103.573 18.6636 103.667 18.6641H106.516C106.789 18.6641 106.994 18.9101 106.947 19.1771C106.375 22.4101 103.431 23.9981 99.6892 23.9981C94.8722 23.9981 91.6492 20.8581 91.6492 15.0871C91.6492 9.38207 94.7022 6.14207 99.7232 6.14207C104.54 6.14207 107.321 9.14607 107.321 14.6821ZM103.556 12.9601C103.556 10.3951 101.996 9.01007 99.7232 9.01007C97.3582 9.01007 95.9522 10.4891 95.5942 13.0621C95.5881 13.1083 95.5919 13.1553 95.6055 13.2C95.619 13.2446 95.6419 13.2858 95.6727 13.3209C95.7035 13.3559 95.7414 13.384 95.7839 13.4032C95.8265 13.4223 95.8726 13.4322 95.9192 13.4321H103.115C103.352 13.4321 103.556 13.2981 103.556 12.9601Z" fill="#F8F8F8"/>
</g>
<defs>
<clipPath id="clip0_447_516">
<rect width="27" height="24" fill="white"/>
</clipPath>
</defs>
</svg>
