<svg width="32" height="32" viewBox="0 0 32 32" fill="none" xmlns="http://www.w3.org/2000/svg">
<g clip-path="url(#clip0_345_185)">
<path d="M14.1871 1.50289L3.31378 12.3762C2.83726 12.8518 2.45921 13.4167 2.20126 14.0385C1.94332 14.6604 1.81055 15.327 1.81055 16.0002C1.81055 16.6735 1.94332 17.3401 2.20126 17.9619C2.45921 18.5838 2.83726 19.1487 3.31378 19.6242L14.1871 30.4976C14.6627 30.9741 15.2276 31.3521 15.8494 31.6101C16.4713 31.868 17.1379 32.0008 17.8111 32.0008C18.4843 32.0008 19.151 31.868 19.7728 31.6101C20.3947 31.3521 20.9595 30.9741 21.4351 30.4976L25.0618 26.8736L21.4351 23.2496L17.8111 26.8736L6.93778 16.0002L17.8111 5.12689L25.0604 12.3762L17.8111 19.6242L21.4351 23.2496L28.6844 16.0002C29.1612 15.5246 29.5394 14.9597 29.7974 14.3377C30.0555 13.7157 30.1883 13.0489 30.1883 12.3756C30.1883 11.7022 30.0555 11.0354 29.7974 10.4134C29.5394 9.79144 29.1612 9.22648 28.6844 8.75089L21.4204 1.50289C20.946 1.02698 20.3824 0.649379 19.7617 0.391734C19.1411 0.134089 18.4758 0.00146484 17.8038 0.00146484C17.1318 0.00146484 16.4664 0.134089 15.8458 0.391734C15.2252 0.649379 14.6615 1.02698 14.1871 1.50289Z" fill="white"/>
</g>
<defs>
<clipPath id="clip0_345_185">
<rect width="32" height="32" fill="white"/>
</clipPath>
</defs>
</svg>
