<svg width="20" height="20" viewBox="0 0 20 20" fill="none" xmlns="http://www.w3.org/2000/svg">
<path d="M7.22323 7.22234C6.48648 7.22234 5.77991 6.92966 5.25895 6.4087C4.73799 5.88774 4.44531 5.18117 4.44531 4.44442C4.44531 3.70767 4.73799 3.0011 5.25895 2.48014C5.77991 1.95918 6.48648 1.6665 7.22323 1.6665H10.0007V7.22234M7.22323 7.22234H10.0007M7.22323 7.22234C6.48659 7.22234 5.78012 7.51497 5.25924 8.03585C4.73836 8.55673 4.44573 9.2632 4.44573 9.99984C4.44573 10.7365 4.73836 11.4429 5.25924 11.9638C5.78012 12.4847 6.48659 12.7773 7.22323 12.7773H10.0007V7.22234" stroke="white" stroke-width="1.5"/>
<path d="M15.5561 9.9996C15.5561 10.7363 15.2635 11.4429 14.7425 11.9639C14.2216 12.4848 13.515 12.7775 12.7782 12.7775C12.0415 12.7775 11.3349 12.4848 10.8139 11.9639C10.293 11.4429 10.0003 10.7363 10.0003 9.9996C10.0003 9.26285 10.293 8.55627 10.8139 8.03531C11.3349 7.51435 12.0415 7.22168 12.7782 7.22168C13.515 7.22168 14.2216 7.51435 14.7425 8.03531C15.2635 8.55627 15.5561 9.26285 15.5561 9.9996ZM7.22281 12.7779H10.0003V15.5554C10.0001 16.1047 9.83711 16.6416 9.53182 17.0983C9.22652 17.5549 8.79268 17.9108 8.28514 18.1209C7.7776 18.331 7.21917 18.3859 6.68044 18.2786C6.14171 18.1714 5.64689 17.9068 5.25853 17.5183C4.87017 17.1298 4.60572 16.6349 4.49862 16.0962C4.39152 15.5574 4.44657 14.999 4.65682 14.4915C4.86706 13.984 5.22306 13.5503 5.6798 13.2451C6.13654 12.94 6.67351 12.7779 7.22281 12.7779Z" stroke="white" stroke-width="1.5"/>
<path d="M10 1.6665H12.7775C13.5142 1.6665 14.2208 1.95918 14.7418 2.48014C15.2627 3.0011 15.5554 3.70767 15.5554 4.44442C15.5554 5.18117 15.2627 5.88774 14.7418 6.4087C14.2208 6.92966 13.5142 7.22234 12.7775 7.22234H10V1.6665Z" stroke="white" stroke-width="1.5"/>
</svg>
